<?xml version="1.0" standalone="no"?>
<!DOCTYPE svg PUBLIC "-//W3C//DTD SVG 20010904//EN"
 "http://www.w3.org/TR/2001/REC-SVG-20010904/DTD/svg10.dtd">
<svg version="1.0" xmlns="http://www.w3.org/2000/svg"
 width="600.000000pt" height="400.000000pt" viewBox="0 0 600.000000 400.000000"
 preserveAspectRatio="xMidYMid meet">
<g transform="translate(0.000000,400.000000) scale(0.100000,-0.100000)"
fill="#000000" stroke="none">
<path d="M2940 3889 c0 -5 5 -7 10 -4 6 3 10 8 10 11 0 2 -4 4 -10 4 -5 0 -10
-5 -10 -11z"/>
<path d="M2475 3880 c3 -5 8 -10 11 -10 2 0 4 5 4 10 0 6 -5 10 -11 10 -5 0
-7 -4 -4 -10z"/>
<path d="M55 3840 c3 -5 8 -10 11 -10 2 0 4 5 4 10 0 6 -5 10 -11 10 -5 0 -7
-4 -4 -10z"/>
<path d="M2275 3820 c3 -5 8 -10 11 -10 2 0 4 5 4 10 0 6 -5 10 -11 10 -5 0
-7 -4 -4 -10z"/>
<path d="M226 3742 c-3 -5 -4 -797 -3 -1761 l2 -1751 2725 0 c1499 -1 2748 -1
2777 0 l52 0 -2 1760 -2 1760 -2772 0 c-1524 0 -2774 -4 -2777 -8z m5526
-1724 c2 -937 1 -1717 -1 -1735 -3 -29 -7 -32 -40 -35 -20 -2 -1257 -2 -2748
0 l-2713 2 0 1735 0 1735 2750 0 2750 0 2 -1702z"/>
<path d="M881 3634 c0 -11 3 -14 6 -6 3 7 2 16 -1 19 -3 4 -6 -2 -5 -13z"/>
<path d="M3912 3616 c4 -5 4 -14 -1 -20 -6 -7 1 -12 22 -13 18 0 25 1 17 4 -8
4 -21 13 -30 22 -8 9 -12 12 -8 7z"/>
<path d="M3071 3604 c0 -11 3 -14 6 -6 3 7 2 16 -1 19 -3 4 -6 -2 -5 -13z"/>
<path d="M960 3600 c0 -5 5 -10 10 -10 6 0 10 5 10 10 0 6 -4 10 -10 10 -5 0
-10 -4 -10 -10z"/>
<path d="M1440 3570 c0 -5 5 -10 11 -10 5 0 7 5 4 10 -3 6 -8 10 -11 10 -2 0
-4 -4 -4 -10z"/>
<path d="M3345 3560 c-3 -5 -1 -10 4 -10 6 0 11 5 11 10 0 6 -2 10 -4 10 -3 0
-8 -4 -11 -10z"/>
<path d="M3408 3553 c7 -3 16 -2 19 1 4 3 -2 6 -13 5 -11 0 -14 -3 -6 -6z"/>
<path d="M3965 3550 c3 -5 8 -10 11 -10 2 0 4 5 4 10 0 6 -5 10 -11 10 -5 0
-7 -4 -4 -10z"/>
<path d="M2408 3503 c7 -3 16 -2 19 1 4 3 -2 6 -13 5 -11 0 -14 -3 -6 -6z"/>
<path d="M5572 3496 c7 -8 15 -12 17 -11 5 6 -10 25 -20 25 -5 0 -4 -6 3 -14z"/>
<path d="M830 3470 c0 -5 5 -10 11 -10 5 0 7 5 4 10 -3 6 -8 10 -11 10 -2 0
-4 -4 -4 -10z"/>
<path d="M1011 3464 c0 -11 3 -14 6 -6 3 7 2 16 -1 19 -3 4 -6 -2 -5 -13z"/>
<path d="M4532 3460 c0 -14 2 -19 5 -12 2 6 2 18 0 25 -3 6 -5 1 -5 -13z"/>
<path d="M4375 3460 c-3 -5 -1 -10 4 -10 6 0 11 5 11 10 0 6 -2 10 -4 10 -3 0
-8 -4 -11 -10z"/>
<path d="M1058 3453 c7 -3 16 -2 19 1 4 3 -2 6 -13 5 -11 0 -14 -3 -6 -6z"/>
<path d="M5278 3443 c7 -3 16 -2 19 1 4 3 -2 6 -13 5 -11 0 -14 -3 -6 -6z"/>
<path d="M2535 3430 c-3 -5 -2 -10 4 -10 5 0 13 5 16 10 3 6 2 10 -4 10 -5 0
-13 -4 -16 -10z"/>
<path d="M4971 3424 c0 -11 3 -14 6 -6 3 7 2 16 -1 19 -3 4 -6 -2 -5 -13z"/>
<path d="M510 3400 c0 -5 5 -10 11 -10 5 0 7 5 4 10 -3 6 -8 10 -11 10 -2 0
-4 -4 -4 -10z"/>
<path d="M1698 3403 c6 -2 18 -2 25 0 6 3 1 5 -13 5 -14 0 -19 -2 -12 -5z"/>
<path d="M5420 3400 c0 -5 5 -10 11 -10 5 0 7 5 4 10 -3 6 -8 10 -11 10 -2 0
-4 -4 -4 -10z"/>
<path d="M357 3389 c7 -7 15 -10 18 -7 3 3 -2 9 -12 12 -14 6 -15 5 -6 -5z"/>
<path d="M5050 3390 c0 -5 5 -10 11 -10 5 0 7 5 4 10 -3 6 -8 10 -11 10 -2 0
-4 -4 -4 -10z"/>
<path d="M4680 3380 c0 -5 5 -10 10 -10 6 0 10 5 10 10 0 6 -4 10 -10 10 -5 0
-10 -4 -10 -10z"/>
<path d="M3530 3376 c0 -2 7 -7 16 -10 8 -3 12 -2 9 4 -6 10 -25 14 -25 6z"/>
<path d="M2937 3359 c7 -7 15 -10 18 -7 3 3 -2 9 -12 12 -14 6 -15 5 -6 -5z"/>
<path d="M1368 3353 c7 -3 16 -2 19 1 4 3 -2 6 -13 5 -11 0 -14 -3 -6 -6z"/>
<path d="M4530 3356 c0 -2 7 -7 16 -10 8 -3 12 -2 9 4 -6 10 -25 14 -25 6z"/>
<path d="M445 3330 c3 -5 8 -10 11 -10 2 0 4 5 4 10 0 6 -5 10 -11 10 -5 0 -7
-4 -4 -10z"/>
<path d="M378 3323 c7 -3 16 -2 19 1 4 3 -2 6 -13 5 -11 0 -14 -3 -6 -6z"/>
<path d="M2227 3309 c7 -7 15 -10 18 -7 3 3 -2 9 -12 12 -14 6 -15 5 -6 -5z"/>
<path d="M2200 3270 c0 -5 5 -10 11 -10 5 0 7 5 4 10 -3 6 -8 10 -11 10 -2 0
-4 -4 -4 -10z"/>
<path d="M2857 3155 c-92 -69 -168 -125 -170 -125 -1 0 -1 18 1 40 2 22 8 40
13 40 5 0 9 11 9 25 0 25 -1 25 -85 25 -84 0 -85 0 -85 -25 0 -16 6 -25 15
-25 12 0 15 -16 15 -85 l0 -85 -120 -87 c-65 -49 -119 -90 -120 -94 0 -3 30
-4 68 -3 l67 3 283 211 283 211 132 -97 c73 -54 201 -149 284 -212 l153 -113
70 -4 c38 -1 70 -1 70 0 0 2 -39 32 -87 66 -88 63 -414 305 -549 406 -39 29
-72 53 -75 53 -3 0 -80 -56 -172 -125z m183 96 c0 -5 9 -11 21 -14 12 -3 19
-10 16 -14 -3 -5 -1 -15 5 -23 8 -12 9 -12 4 3 -3 9 -3 17 -1 17 10 0 115 -84
115 -91 0 -5 6 -9 13 -9 8 0 24 -11 37 -25 15 -16 19 -25 10 -25 -7 0 -10 -3
-7 -6 4 -4 13 -2 20 4 11 9 18 7 35 -11 30 -32 50 -47 62 -47 6 0 13 -7 16
-15 4 -8 10 -13 14 -10 5 3 18 -7 30 -22 12 -16 19 -21 15 -13 -4 8 3 4 14 -9
12 -13 21 -20 21 -16 0 3 19 -9 43 -27 23 -19 54 -42 69 -51 16 -10 27 -23 25
-29 -1 -7 7 -12 18 -13 20 0 36 -35 16 -35 -6 0 -11 4 -11 9 0 5 -19 12 -42
16 -39 7 -41 8 -18 15 l25 8 -28 1 c-37 1 -117 58 -117 83 0 16 -3 17 -21 7
-12 -6 -19 -7 -15 -1 3 5 -2 13 -11 16 -14 6 -15 9 -4 15 11 7 9 10 -8 16 -11
3 -25 4 -30 1 -4 -3 -25 13 -44 35 -20 22 -41 38 -47 34 -5 -3 -10 1 -10 9 0
9 -8 16 -18 16 -10 0 -28 11 -40 25 -12 14 -28 25 -34 25 -9 0 -8 4 2 11 12 9
12 10 -4 5 -22 -7 -49 11 -39 27 4 6 0 8 -9 4 -9 -3 -29 6 -48 21 -32 26 -70
38 -70 21 0 -5 -8 -6 -17 -2 -10 3 -15 3 -11 -2 9 -10 -17 -35 -37 -35 -9 0
-14 -4 -10 -9 3 -5 1 -12 -5 -16 -5 -3 -10 2 -11 12 0 14 -3 12 -12 -7 -6 -14
-12 -27 -13 -28 -6 -10 -44 11 -44 24 0 17 12 18 29 2 10 -10 12 -10 7 -1 -4
7 6 26 22 43 28 29 50 41 37 20 -3 -5 -1 -10 4 -10 6 0 11 9 11 20 0 12 9 22
24 26 14 3 27 12 30 20 6 15 26 19 26 5z m-412 -114 c7 -5 19 -4 27 3 12 10
15 10 15 -1 0 -11 2 -11 10 1 9 13 10 13 10 0 0 -9 -5 -21 -11 -27 -7 -7 -12
-30 -13 -52 0 -21 1 -38 3 -36 2 2 12 -6 22 -18 l18 -22 1 22 c0 23 14 38 29
29 4 -3 6 -17 4 -31 -3 -13 -9 -22 -14 -19 -5 3 -9 0 -9 -6 0 -6 -4 -8 -10 -5
-5 3 -10 -1 -10 -10 0 -11 -5 -15 -15 -12 -8 4 -17 1 -21 -5 -4 -7 -3 -8 4 -4
8 5 10 1 6 -9 -5 -11 -10 -13 -17 -6 -5 5 -16 7 -23 4 -11 -4 -12 -9 -3 -19 9
-11 7 -14 -7 -15 -11 -1 -22 -1 -26 0 -4 0 -5 -6 -1 -15 4 -11 0 -14 -21 -10
-26 5 -37 -8 -13 -17 6 -2 0 -8 -15 -12 -15 -4 -29 -13 -32 -22 -3 -8 -10 -11
-16 -8 -7 4 -6 14 2 28 10 20 10 21 -5 8 -11 -9 -15 -21 -11 -37 3 -13 2 -24
-2 -25 -5 0 -29 -2 -54 -5 l-45 -4 30 14 c17 8 26 15 21 15 -6 1 9 15 32 32
23 17 49 29 56 26 9 -4 12 0 9 12 -3 13 3 20 22 25 14 4 23 11 20 16 -3 6 -1
10 4 10 6 0 11 7 11 16 0 8 4 12 10 9 6 -3 7 1 4 9 -3 9 -9 16 -13 16 -3 0 -5
31 -4 70 1 38 -2 70 -6 70 -4 0 -8 6 -8 13 0 14 35 17 55 4z m230 -65 c-13 -9
-26 -20 -29 -25 -4 -5 -14 1 -22 14 -16 22 -14 39 4 39 6 0 8 -4 5 -8 -3 -5 1
-9 8 -9 8 0 11 8 8 20 -5 19 -4 19 22 2 l27 -18 -23 -15z m-71 -49 c-22 -25
-37 -29 -37 -12 0 5 5 7 10 4 14 -9 13 8 -2 23 -14 14 3 16 20 2 9 -7 9 -7 2
2 -5 7 -10 19 -10 27 0 11 4 10 19 -5 18 -19 18 -19 -2 -41z"/>
<path d="M3021 3234 c0 -11 3 -14 6 -6 3 7 2 16 -1 19 -3 4 -6 -2 -5 -13z"/>
<path d="M3285 3050 c-3 -5 -1 -10 4 -10 6 0 11 5 11 10 0 6 -2 10 -4 10 -3 0
-8 -4 -11 -10z"/>
<path d="M3478 2883 c7 -3 16 -2 19 1 4 3 -2 6 -13 5 -11 0 -14 -3 -6 -6z"/>
<path d="M3517 2859 c7 -7 15 -10 18 -7 3 3 -2 9 -12 12 -14 6 -15 5 -6 -5z"/>
<path d="M3556 2842 c-3 -5 1 -9 9 -9 8 0 12 4 9 9 -3 4 -7 8 -9 8 -2 0 -6 -4
-9 -8z"/>
<path d="M2645 3120 c-3 -5 -1 -10 4 -10 6 0 11 5 11 10 0 6 -2 10 -4 10 -3 0
-8 -4 -11 -10z"/>
<path d="M2621 3094 c0 -11 3 -14 6 -6 3 7 2 16 -1 19 -3 4 -6 -2 -5 -13z"/>
<path d="M2601 3084 c0 -11 3 -14 6 -6 3 7 2 16 -1 19 -3 4 -6 -2 -5 -13z"/>
<path d="M2610 2986 c0 -2 7 -7 16 -10 8 -3 12 -2 9 4 -6 10 -25 14 -25 6z"/>
<path d="M2460 2814 c0 -8 5 -12 10 -9 6 4 8 11 5 16 -9 14 -15 11 -15 -7z"/>
<path d="M1740 3260 c8 -5 20 -10 25 -10 6 0 3 5 -5 10 -8 5 -19 10 -25 10 -5
0 -3 -5 5 -10z"/>
<path d="M4398 3263 c6 -2 18 -2 25 0 6 3 1 5 -13 5 -14 0 -19 -2 -12 -5z"/>
<path d="M430 3246 c0 -2 7 -6 15 -10 8 -3 15 -1 15 4 0 6 -7 10 -15 10 -8 0
-15 -2 -15 -4z"/>
<path d="M545 3220 c3 -5 8 -10 11 -10 2 0 4 5 4 10 0 6 -5 10 -11 10 -5 0 -7
-4 -4 -10z"/>
<path d="M4518 3213 c7 -3 16 -2 19 1 4 3 -2 6 -13 5 -11 0 -14 -3 -6 -6z"/>
<path d="M5495 3210 c3 -5 8 -10 11 -10 2 0 4 5 4 10 0 6 -5 10 -11 10 -5 0
-7 -4 -4 -10z"/>
<path d="M1250 3200 c8 -5 20 -10 25 -10 6 0 3 5 -5 10 -8 5 -19 10 -25 10 -5
0 -3 -5 5 -10z"/>
<path d="M1010 3196 c0 -2 7 -7 16 -10 8 -3 12 -2 9 4 -6 10 -25 14 -25 6z"/>
<path d="M1748 3193 c7 -3 16 -2 19 1 4 3 -2 6 -13 5 -11 0 -14 -3 -6 -6z"/>
<path d="M3910 3196 c0 -2 9 -6 20 -9 11 -3 18 -1 14 4 -5 9 -34 13 -34 5z"/>
<path d="M5238 3183 c7 -3 16 -2 19 1 4 3 -2 6 -13 5 -11 0 -14 -3 -6 -6z"/>
<path d="M5530 3172 c0 -12 19 -26 26 -19 2 2 -2 10 -11 17 -9 8 -15 8 -15 2z"/>
<path d="M587 3149 c7 -7 15 -10 18 -7 3 3 -2 9 -12 12 -14 6 -15 5 -6 -5z"/>
<path d="M710 3145 c7 -8 17 -15 22 -15 6 0 5 7 -2 15 -7 8 -17 15 -22 15 -6
0 -5 -7 2 -15z"/>
<path d="M5175 3150 c3 -5 8 -10 11 -10 2 0 4 5 4 10 0 6 -5 10 -11 10 -5 0
-7 -4 -4 -10z"/>
<path d="M1280 3129 c0 -5 5 -7 10 -4 6 3 10 8 10 11 0 2 -4 4 -10 4 -5 0 -10
-5 -10 -11z"/>
<path d="M5535 3120 c3 -4 14 -10 25 -13 11 -3 18 -2 15 3 -3 4 -14 10 -25 13
-11 3 -18 2 -15 -3z"/>
<path d="M600 3116 c0 -2 7 -9 15 -16 9 -7 15 -8 15 -2 0 5 -7 12 -15 16 -8 3
-15 4 -15 2z"/>
<path d="M1440 3104 c8 -10 15 -20 16 -22 1 -2 5 1 8 7 4 5 -4 15 -16 22 -22
12 -22 11 -8 -7z"/>
<path d="M4860 3106 c7 -7 14 -6 21 1 9 9 7 12 -9 10 -14 -1 -18 -5 -12 -11z"/>
<path d="M305 3100 c3 -5 8 -10 11 -10 2 0 4 5 4 10 0 6 -5 10 -11 10 -5 0 -7
-4 -4 -10z"/>
<path d="M935 3100 c27 -12 43 -12 25 0 -8 5 -22 9 -30 9 -10 0 -8 -3 5 -9z"/>
<path d="M1340 3106 c0 -2 7 -9 15 -16 13 -11 14 -10 9 4 -5 14 -24 23 -24 12z"/>
<path d="M337 3089 c7 -7 15 -10 18 -7 3 3 -2 9 -12 12 -14 6 -15 5 -6 -5z"/>
<path d="M1485 3090 c3 -5 8 -10 11 -10 2 0 4 5 4 10 0 6 -5 10 -11 10 -5 0
-7 -4 -4 -10z"/>
<path d="M490 3080 c0 -5 5 -10 11 -10 5 0 7 5 4 10 -3 6 -8 10 -11 10 -2 0
-4 -4 -4 -10z"/>
<path d="M1850 3080 c0 -5 5 -10 10 -10 6 0 10 5 10 10 0 6 -4 10 -10 10 -5 0
-10 -4 -10 -10z"/>
<path d="M5268 3083 c7 -3 16 -2 19 1 4 3 -2 6 -13 5 -11 0 -14 -3 -6 -6z"/>
<path d="M984 3068 c9 -5 23 -5 32 0 12 6 7 9 -16 9 -23 0 -28 -3 -16 -9z"/>
<path d="M4258 3073 c7 -3 16 -2 19 1 4 3 -2 6 -13 5 -11 0 -14 -3 -6 -6z"/>
<path d="M1370 3059 c0 -5 5 -7 10 -4 6 3 10 8 10 11 0 2 -4 4 -10 4 -5 0 -10
-5 -10 -11z"/>
<path d="M2445 3060 c-3 -6 1 -7 9 -4 18 7 21 14 7 14 -6 0 -13 -4 -16 -10z"/>
<path d="M2175 3040 c3 -5 8 -10 11 -10 2 0 4 5 4 10 0 6 -5 10 -11 10 -5 0
-7 -4 -4 -10z"/>
<path d="M4965 3040 c4 -6 11 -8 16 -5 14 9 11 15 -7 15 -8 0 -12 -5 -9 -10z"/>
<path d="M4321 2991 c7 -10 21 -24 33 -31 15 -9 12 -3 -8 19 -34 35 -41 39
-25 12z"/>
<path d="M4788 3003 c7 -3 16 -2 19 1 4 3 -2 6 -13 5 -11 0 -14 -3 -6 -6z"/>
<path d="M925 2990 c3 -5 14 -10 23 -10 15 0 15 2 2 10 -20 13 -33 13 -25 0z"/>
<path d="M1320 2990 c-9 -6 -10 -10 -3 -10 6 0 15 5 18 10 8 12 4 12 -15 0z"/>
<path d="M360 2986 c0 -2 7 -7 16 -10 8 -3 12 -2 9 4 -6 10 -25 14 -25 6z"/>
<path d="M710 2980 c0 -5 5 -10 11 -10 5 0 7 5 4 10 -3 6 -8 10 -11 10 -2 0
-4 -4 -4 -10z"/>
<path d="M2930 2940 l0 -50 45 0 45 0 0 50 0 50 -45 0 -45 0 0 -50z m70 5 c0
-18 -5 -25 -20 -25 -12 0 -20 7 -20 16 0 11 5 14 16 10 14 -5 15 -4 4 9 -10
12 -10 15 4 15 10 0 16 -9 16 -25z"/>
<path d="M3040 2940 l0 -50 45 0 45 0 0 50 0 50 -45 0 -45 0 0 -50z m67 24
c-3 -3 -12 -4 -19 -1 -8 3 -5 6 6 6 11 1 17 -2 13 -5z m-1 -26 c4 -6 -2 -17
-12 -26 -17 -16 -17 -16 -4 2 14 17 13 18 -5 12 -16 -4 -21 -1 -22 13 -1 14 3
17 18 14 11 -3 22 -10 25 -15z"/>
<path d="M5465 2980 c3 -5 8 -10 11 -10 2 0 4 5 4 10 0 6 -5 10 -11 10 -5 0
-7 -4 -4 -10z"/>
<path d="M4750 2970 c0 -5 5 -10 11 -10 5 0 7 5 4 10 -3 6 -8 10 -11 10 -2 0
-4 -4 -4 -10z"/>
<path d="M1066 2955 c4 -8 11 -15 16 -15 6 0 5 6 -2 15 -7 8 -14 15 -16 15 -2
0 -1 -7 2 -15z"/>
<path d="M4065 2960 c3 -5 8 -10 11 -10 2 0 4 5 4 10 0 6 -5 10 -11 10 -5 0
-7 -4 -4 -10z"/>
<path d="M4140 2960 c0 -5 5 -10 10 -10 6 0 10 5 10 10 0 6 -4 10 -10 10 -5 0
-10 -4 -10 -10z"/>
<path d="M5038 2963 c7 -3 16 -2 19 1 4 3 -2 6 -13 5 -11 0 -14 -3 -6 -6z"/>
<path d="M5380 2950 c0 -5 5 -10 11 -10 5 0 7 5 4 10 -3 6 -8 10 -11 10 -2 0
-4 -4 -4 -10z"/>
<path d="M756 2935 c4 -8 8 -15 10 -15 2 0 4 7 4 15 0 8 -4 15 -10 15 -5 0 -7
-7 -4 -15z"/>
<path d="M1468 2943 c7 -3 16 -2 19 1 4 3 -2 6 -13 5 -11 0 -14 -3 -6 -6z"/>
<path d="M1768 2943 c7 -3 16 -2 19 1 4 3 -2 6 -13 5 -11 0 -14 -3 -6 -6z"/>
<path d="M808 2933 c7 -3 16 -2 19 1 4 3 -2 6 -13 5 -11 0 -14 -3 -6 -6z"/>
<path d="M1527 2929 c7 -7 15 -10 18 -7 3 3 -2 9 -12 12 -14 6 -15 5 -6 -5z"/>
<path d="M448 2923 c7 -3 16 -2 19 1 4 3 -2 6 -13 5 -11 0 -14 -3 -6 -6z"/>
<path d="M862 2914 c10 -10 20 -15 24 -12 3 4 -5 12 -18 18 -22 12 -22 12 -6
-6z"/>
<path d="M1800 2926 c0 -3 9 -10 20 -16 11 -6 20 -8 20 -6 0 3 -9 10 -20 16
-11 6 -20 8 -20 6z"/>
<path d="M2050 2919 c0 -5 5 -7 10 -4 6 3 10 8 10 11 0 2 -4 4 -10 4 -5 0 -10
-5 -10 -11z"/>
<path d="M320 2916 c0 -2 7 -7 16 -10 8 -3 12 -2 9 4 -6 10 -25 14 -25 6z"/>
<path d="M968 2908 c6 -6 18 -8 28 -6 14 3 12 5 -9 10 -19 3 -25 2 -19 -4z"/>
<path d="M2136 2905 c4 -8 10 -15 15 -15 4 0 6 7 3 15 -4 8 -10 15 -15 15 -4
0 -6 -7 -3 -15z"/>
<path d="M810 2906 c0 -2 8 -10 18 -17 15 -13 16 -12 3 4 -13 16 -21 21 -21
13z"/>
<path d="M600 2886 c0 -2 8 -10 18 -17 15 -13 16 -12 3 4 -13 16 -21 21 -21
13z"/>
<path d="M1353 2875 c0 -8 4 -12 9 -9 5 3 6 10 3 15 -9 13 -12 11 -12 -6z"/>
<path d="M1915 2880 c-3 -5 -1 -10 4 -10 6 0 11 5 11 10 0 6 -2 10 -4 10 -3 0
-8 -4 -11 -10z"/>
<path d="M2930 2820 l0 -50 45 0 45 0 0 50 0 50 -45 0 -45 0 0 -50z m68 6 c2
-10 0 -22 -5 -27 -12 -12 -45 0 -41 13 5 13 24 9 20 -4 -1 -5 2 -7 8 -3 7 4 7
13 -1 27 -9 16 -8 19 3 16 7 -3 15 -13 16 -22z"/>
<path d="M3040 2819 l0 -49 45 0 45 0 0 48 0 48 -45 0 -45 1 0 -48z m66 16
c13 -11 7 -38 -6 -30 -5 3 -11 -3 -13 -12 -3 -11 -5 -6 -7 12 -1 26 -3 27 -10
10 -8 -18 -9 -17 -7 6 1 27 21 33 43 14z"/>
<path d="M760 2856 c0 -2 8 -10 18 -17 15 -13 16 -12 3 4 -13 16 -21 21 -21
13z"/>
<path d="M1120 2849 c0 -5 9 -9 20 -9 11 0 20 2 20 4 0 2 -9 6 -20 9 -11 3
-20 1 -20 -4z"/>
<path d="M4108 2853 c7 -3 16 -2 19 1 4 3 -2 6 -13 5 -11 0 -14 -3 -6 -6z"/>
<path d="M785 2811 c-18 -7 -17 -8 7 -13 19 -4 25 -1 21 9 -3 7 -6 13 -7 12 0
0 -10 -4 -21 -8z"/>
<path d="M1080 2805 c7 -8 17 -15 22 -15 5 0 3 7 -6 15 -8 8 -18 15 -22 15 -3
0 -1 -7 6 -15z"/>
<path d="M4640 2799 c0 -5 5 -7 10 -4 6 3 10 8 10 11 0 2 -4 4 -10 4 -5 0 -10
-5 -10 -11z"/>
<path d="M1170 2786 c0 -2 7 -7 16 -10 8 -3 12 -2 9 4 -6 10 -25 14 -25 6z"/>
<path d="M1318 2783 c7 -3 16 -2 19 1 4 3 -2 6 -13 5 -11 0 -14 -3 -6 -6z"/>
<path d="M1457 2779 c7 -7 15 -10 18 -7 3 3 -2 9 -12 12 -14 6 -15 5 -6 -5z"/>
<path d="M940 2776 c0 -2 7 -7 16 -10 8 -3 12 -2 9 4 -6 10 -25 14 -25 6z"/>
<path d="M4005 2770 c3 -5 8 -10 11 -10 2 0 4 5 4 10 0 6 -5 10 -11 10 -5 0
-7 -4 -4 -10z"/>
<path d="M400 2765 c0 -5 5 -17 10 -25 5 -8 10 -10 10 -5 0 6 -5 17 -10 25 -5
8 -10 11 -10 5z"/>
<path d="M780 2763 c8 -3 18 -11 22 -17 4 -6 10 -7 15 -3 9 10 -16 27 -37 26
-13 -1 -13 -1 0 -6z"/>
<path d="M915 2750 c3 -5 8 -10 11 -10 2 0 4 5 4 10 0 6 -5 10 -11 10 -5 0 -7
-4 -4 -10z"/>
<path d="M4360 2740 c0 -5 5 -10 11 -10 5 0 7 5 4 10 -3 6 -8 10 -11 10 -2 0
-4 -4 -4 -10z"/>
<path d="M505 2730 c3 -5 8 -10 11 -10 2 0 4 5 4 10 0 6 -5 10 -11 10 -5 0 -7
-4 -4 -10z"/>
<path d="M4500 2719 c0 -5 5 -7 10 -4 6 3 10 8 10 11 0 2 -4 4 -10 4 -5 0 -10
-5 -10 -11z"/>
<path d="M3945 2710 c3 -5 8 -10 11 -10 2 0 4 5 4 10 0 6 -5 10 -11 10 -5 0
-7 -4 -4 -10z"/>
<path d="M4696 2705 c4 -8 8 -15 10 -15 2 0 4 7 4 15 0 8 -4 15 -10 15 -5 0
-7 -7 -4 -15z"/>
<path d="M4810 2716 c0 -2 7 -7 16 -10 8 -3 12 -2 9 4 -6 10 -25 14 -25 6z"/>
<path d="M5617 2709 c7 -7 15 -10 18 -7 3 3 -2 9 -12 12 -14 6 -15 5 -6 -5z"/>
<path d="M1100 2700 c8 -5 20 -10 25 -10 6 0 3 5 -5 10 -8 5 -19 10 -25 10 -5
0 -3 -5 5 -10z"/>
<path d="M1230 2705 c0 -2 9 -9 20 -15 16 -9 18 -8 14 5 -5 13 -34 22 -34 10z"/>
<path d="M1808 2703 c7 -3 16 -2 19 1 4 3 -2 6 -13 5 -11 0 -14 -3 -6 -6z"/>
<path d="M420 2696 c0 -2 7 -7 16 -10 8 -3 12 -2 9 4 -6 10 -25 14 -25 6z"/>
<path d="M5015 2690 c3 -5 8 -10 11 -10 2 0 4 5 4 10 0 6 -5 10 -11 10 -5 0
-7 -4 -4 -10z"/>
<path d="M1326 2675 c4 -8 11 -15 16 -15 6 0 5 6 -2 15 -7 8 -14 15 -16 15 -2
0 -1 -7 2 -15z"/>
<path d="M2931 2667 c-26 -16 -61 -22 -160 -28 -157 -9 -208 -26 -260 -86 -55
-62 -61 -100 -64 -414 l-2 -266 44 14 c24 7 54 13 65 13 21 0 22 1 18 266 -5
286 1 334 41 356 12 7 70 15 128 18 95 6 110 9 149 36 42 28 85 85 78 102 -1
5 -18 0 -37 -11z m-16 -48 c-8 -12 -55 -12 -55 0 0 10 39 20 53 13 4 -2 5 -8
2 -13z m-58 -15 l28 -23 -27 -1 c-15 0 -30 -5 -33 -10 -4 -6 -15 -8 -26 -5
-10 4 -19 2 -19 -3 0 -5 -13 -7 -30 -4 -27 4 -36 17 -31 45 1 5 -4 5 -10 2 -6
-4 -9 -16 -6 -26 3 -11 1 -19 -4 -19 -5 0 -9 6 -10 13 0 10 -2 10 -6 0 -2 -7
-12 -13 -22 -13 -9 0 -23 6 -30 13 -10 10 -12 8 -9 -8 2 -11 -3 -20 -10 -20
-7 0 -17 -7 -22 -15 -10 -16 -12 -15 -28 15 -11 19 -11 19 -9 -2 1 -13 5 -23
9 -23 4 0 8 -8 8 -17 0 -14 -4 -13 -24 6 -18 17 -26 19 -31 10 -5 -7 -4 -10 2
-6 6 4 17 -3 25 -16 19 -28 17 -125 -2 -137 -12 -7 -11 -10 3 -16 9 -3 17 -15
17 -26 0 -13 -4 -17 -12 -12 -8 5 -7 0 2 -11 9 -10 11 -20 5 -22 -6 -2 -8 -32
-5 -75 6 -89 2 -120 -13 -112 -7 3 -3 -2 8 -11 12 -9 16 -19 10 -23 -14 -10
-17 -32 -5 -32 5 0 10 -9 10 -20 0 -11 -4 -20 -10 -20 -6 0 -6 -9 0 -25 5 -14
6 -24 2 -24 -18 3 -33 -2 -29 -8 3 -5 -10 -8 -29 -8 -19 0 -33 4 -30 10 2 5 9
9 15 7 15 -3 14 15 -1 21 -10 3 -10 9 0 26 15 25 15 34 2 26 -5 -3 -10 1 -10
9 0 9 5 16 11 16 8 0 7 6 -2 17 -12 14 -12 17 0 21 11 4 11 6 0 14 -11 7 -11
11 -1 15 6 2 9 10 5 16 -11 18 -11 47 0 47 5 0 3 8 -4 17 -12 14 -12 15 -1 9
11 -7 12 -4 4 11 -14 26 -8 103 9 114 11 7 11 9 -3 9 -14 0 -17 8 -15 44 1 25
6 48 9 52 4 4 3 15 -3 25 -6 11 -6 19 0 19 5 0 12 12 15 26 9 34 46 84 63 84
7 0 13 4 13 9 0 15 94 40 108 29 8 -7 12 -7 12 0 0 10 36 15 112 18 15 0 39
-10 55 -22z"/>
<path d="M2781 2602 c15 -25 33 -24 35 2 2 14 1 14 -3 0 -4 -14 -7 -13 -25 3
-21 18 -21 18 -7 -5z"/>
<path d="M2620 2596 c0 -2 7 -7 16 -10 8 -3 12 -2 9 4 -6 10 -25 14 -25 6z"/>
<path d="M2577 2573 c-4 -3 -7 -11 -7 -17 0 -6 5 -5 12 2 6 6 9 14 7 17 -3 3
-9 2 -12 -2z"/>
<path d="M2510 2439 c0 -5 9 -9 20 -9 11 0 20 2 20 4 0 2 -9 6 -20 9 -11 3
-20 1 -20 -4z"/>
<path d="M2491 2394 c0 -11 3 -14 6 -6 3 7 2 16 -1 19 -3 4 -6 -2 -5 -13z"/>
<path d="M2500 2290 c-9 -6 -10 -10 -3 -10 6 0 15 5 18 10 8 12 4 12 -15 0z"/>
<path d="M2500 1980 c-9 -6 -10 -10 -3 -10 6 0 15 5 18 10 8 12 4 12 -15 0z"/>
<path d="M280 2676 c0 -2 7 -6 15 -10 8 -3 15 -1 15 4 0 6 -7 10 -15 10 -8 0
-15 -2 -15 -4z"/>
<path d="M1468 2673 c6 -2 18 -2 25 0 6 3 1 5 -13 5 -14 0 -19 -2 -12 -5z"/>
<path d="M5692 2664 c10 -10 20 -16 22 -13 3 3 -5 11 -17 18 -21 13 -21 12 -5
-5z"/>
<path d="M365 2640 c3 -5 8 -10 11 -10 2 0 4 5 4 10 0 6 -5 10 -11 10 -5 0 -7
-4 -4 -10z"/>
<path d="M1691 2634 c0 -11 3 -14 6 -6 3 7 2 16 -1 19 -3 4 -6 -2 -5 -13z"/>
<path d="M4355 2644 c6 -5 23 -20 40 -34 29 -24 29 -24 10 -2 -11 13 -29 28
-40 34 -11 6 -15 6 -10 2z"/>
<path d="M4910 2646 c0 -2 8 -10 18 -17 15 -13 16 -12 3 4 -13 16 -21 21 -21
13z"/>
<path d="M2265 2625 c-56 -20 -91 -63 -106 -129 -7 -31 -9 -59 -4 -64 4 -4 10
-2 12 5 10 28 49 66 81 80 22 9 67 14 118 14 80 -1 85 1 101 26 10 14 38 39
62 55 l45 28 -135 0 c-89 -1 -147 -6 -174 -15z m212 -7 c8 -1 6 -9 -4 -25 -8
-12 -19 -21 -23 -18 -4 3 -11 -2 -14 -11 -9 -25 -28 -4 -22 25 l5 26 -13 -28
c-6 -15 -15 -24 -19 -21 -4 4 -7 3 -7 -3 0 -6 -13 -10 -29 -9 -16 1 -27 4 -24
9 7 12 -11 8 -32 -7 -11 -7 -35 -12 -52 -11 -25 1 -30 -1 -23 -10 7 -9 6 -14
-3 -18 -17 -6 -20 31 -4 47 43 42 111 67 91 34 -4 -7 -2 -8 5 -4 6 4 9 11 6
16 -10 16 43 19 162 8z"/>
<path d="M2445 2600 c3 -5 8 -10 11 -10 2 0 4 5 4 10 0 6 -5 10 -11 10 -5 0
-7 -4 -4 -10z"/>
<path d="M2990 2632 c0 -5 -15 -26 -34 -48 l-34 -40 56 4 c77 6 135 -11 166
-49 21 -25 26 -41 26 -87 0 -113 -37 -143 -184 -152 -115 -8 -157 -25 -197
-82 -27 -38 -49 -125 -49 -197 0 -50 1 -53 23 -47 12 3 42 6 67 6 l45 0 0 84
c0 76 3 87 24 110 53 57 115 20 196 -118 59 -100 108 -160 169 -206 106 -80
275 -117 409 -90 60 12 274 106 264 116 -3 3 -19 -1 -35 -10 -52 -27 -175 -56
-237 -56 -77 0 -190 29 -251 65 -74 43 -118 89 -194 201 -39 57 -81 113 -93
124 l-21 20 23 0 c34 0 76 26 115 72 44 51 60 105 53 179 -9 107 -67 176 -167
198 -54 13 -140 14 -140 3z m146 -23 c6 -5 14 -6 17 -3 11 11 75 -36 95 -70
28 -48 38 -81 21 -70 -12 6 -12 5 -1 -8 13 -16 14 -88 1 -88 -4 0 -13 10 -21
22 -13 19 -15 20 -21 4 -5 -11 -3 -15 5 -10 8 5 9 2 5 -10 -4 -9 -3 -14 2 -11
5 3 12 1 16 -5 4 -6 10 -8 15 -5 14 9 -3 -39 -18 -51 -8 -6 -12 -16 -8 -22 5
-8 -1 -12 -16 -13 -13 0 -17 -3 -10 -6 6 -2 12 -9 12 -14 0 -6 -5 -7 -11 -4
-16 11 -59 13 -59 4 0 -5 7 -9 16 -9 9 0 14 -6 12 -12 -3 -7 -10 -13 -16 -13
-6 0 -17 -6 -23 -12 -7 -7 -19 -13 -25 -13 -24 0 -24 -19 1 -48 16 -19 23 -37
19 -49 -5 -14 -4 -15 5 -3 5 8 12 12 13 10 20 -27 37 -61 27 -55 -8 6 -10 4
-4 -5 4 -7 2 -16 -6 -21 -11 -7 -10 -9 4 -9 9 0 19 1 20 3 2 1 11 -4 20 -12
20 -16 23 -46 5 -35 -9 5 -9 2 1 -9 16 -20 25 -23 15 -4 -3 6 4 1 18 -13 13
-14 39 -37 57 -52 19 -17 29 -33 25 -39 -4 -8 -3 -9 4 -5 8 5 12 -3 12 -23 0
-17 4 -31 9 -31 4 0 6 11 3 25 -2 14 -1 25 2 25 4 0 24 -11 46 -25 22 -14 47
-25 55 -25 9 0 13 -4 10 -10 -3 -5 0 -7 9 -4 8 3 24 0 37 -6 12 -7 44 -12 71
-13 48 0 68 -10 48 -22 -6 -4 -17 -1 -25 5 -12 10 -15 10 -15 0 0 -10 -3 -10
-14 -1 -11 9 -15 9 -18 0 -3 -9 -9 -9 -26 0 -14 8 -22 8 -22 1 0 -5 -8 -10
-17 -10 -14 0 -15 2 -5 9 8 5 -5 8 -34 9 -29 0 -52 6 -58 15 -6 7 -17 12 -24
9 -8 -2 -27 5 -42 16 -15 12 -40 24 -55 28 -17 4 -24 11 -21 21 3 8 2 12 -3 8
-5 -3 -33 18 -61 45 -41 40 -51 56 -48 74 3 16 1 23 -7 20 -8 -4 -11 4 -10 20
2 14 -1 26 -6 26 -5 0 -9 -8 -9 -17 0 -15 -2 -14 -14 3 -8 10 -13 30 -10 44 4
19 3 21 -5 11 -8 -12 -11 -10 -16 12 -4 15 -11 24 -16 21 -5 -3 -9 -1 -9 5 0
5 6 11 13 14 6 2 -4 9 -23 14 -25 7 -34 15 -32 27 2 9 -4 23 -12 31 -12 13
-15 12 -20 -1 -4 -10 -14 -14 -26 -11 -11 3 -20 1 -20 -4 0 -4 -6 -6 -14 -3
-7 3 -16 -2 -19 -10 -6 -14 -32 -15 -60 -1 -6 4 -2 -2 10 -12 16 -13 20 -22
13 -33 -10 -16 -9 -16 -31 17 -11 15 -19 19 -29 12 -13 -7 -12 -9 2 -9 31 0
57 -71 36 -97 -7 -9 -7 -13 1 -13 6 0 11 -5 11 -11 0 -6 -9 -9 -19 -6 -13 3
-18 1 -14 -9 2 -7 11 -10 19 -7 18 7 18 -4 0 -23 -11 -11 -16 -11 -19 -1 -3 6
-6 3 -6 -7 -1 -20 -1 -20 -17 0 -8 10 -13 13 -9 7 4 -8 1 -11 -8 -7 -19 7 -28
43 -17 64 6 11 5 21 -1 27 -7 7 -2 13 17 17 20 5 24 10 15 19 -26 26 -1 87 35
87 14 0 16 2 6 9 -11 7 -10 10 3 15 9 3 21 4 26 0 5 -3 9 -1 9 5 0 6 6 9 13 7
6 -1 9 -1 5 1 -21 12 -3 23 37 23 25 0 45 -4 45 -10 0 -5 5 -10 11 -10 5 0 8
4 4 9 -3 5 7 10 22 10 30 0 147 29 125 30 -11 1 -11 3 0 14 7 8 27 13 44 11
21 -1 31 3 31 12 0 10 -4 11 -11 4 -13 -13 -29 -13 -21 0 3 6 0 10 -7 11 -10
0 -10 2 0 6 6 2 10 9 6 14 -3 5 2 9 10 9 20 0 29 17 15 26 -8 5 -9 3 -4 -6 5
-9 4 -11 -4 -6 -6 4 -9 16 -6 26 3 11 1 28 -4 39 -14 25 4 38 18 14 10 -17 10
-17 11 -1 0 10 -9 22 -20 28 -11 6 -19 16 -17 23 1 7 -3 11 -8 10 -6 -1 -16
10 -22 23 -10 22 -9 26 12 36 14 6 22 15 19 19 -5 8 -13 3 -49 -28 -15 -14
-45 -7 -45 9 0 6 7 7 16 4 8 -3 12 -2 9 4 -8 13 -45 13 -45 0 0 -5 -4 -10 -10
-10 -5 0 -9 3 -8 8 0 4 -2 15 -7 26 -7 16 -9 15 -21 -10 -7 -16 -13 -24 -13
-17 -1 6 -11 9 -23 6 -20 -4 -21 -3 -7 9 8 7 18 21 22 32 6 16 14 17 65 11 31
-4 62 -11 68 -16z m-132 -440 c-3 -5 -10 -7 -15 -3 -5 3 -7 10 -3 15 3 5 10 7
15 3 5 -3 7 -10 3 -15z m-214 -79 c0 -5 -4 -10 -10 -10 -5 0 -10 5 -10 10 0 6
5 10 10 10 6 0 10 -4 10 -10z"/>
<path d="M3205 2525 c0 -18 3 -31 8 -28 4 2 7 15 7 28 0 13 -3 26 -7 28 -5 3
-8 -10 -8 -28z"/>
<path d="M3240 2340 c0 -5 5 -10 11 -10 5 0 7 5 4 10 -3 6 -8 10 -11 10 -2 0
-4 -4 -4 -10z"/>
<path d="M2931 2218 c8 -8 22 -15 32 -15 22 0 10 12 -23 22 -21 7 -22 6 -9 -7z"/>
<path d="M3063 2215 c-10 -11 -9 -13 6 -12 10 0 18 7 18 14 0 17 -9 16 -24 -2z"/>
<path d="M3035 2169 c-4 -6 -4 -13 -1 -16 3 -4 6 -1 6 6 0 7 5 9 12 5 7 -4 8
-3 4 4 -9 15 -13 15 -21 1z"/>
<path d="M3095 2121 c-3 -5 -2 -12 3 -15 5 -3 9 1 9 9 0 17 -3 19 -12 6z"/>
<path d="M2808 2063 c7 -3 16 -2 19 1 4 3 -2 6 -13 5 -11 0 -14 -3 -6 -6z"/>
<path d="M3177 1973 c-4 -7 -2 -15 4 -19 8 -4 7 -9 -2 -15 -11 -7 -10 -9 4 -9
18 0 20 5 8 34 -5 13 -10 16 -14 9z"/>
<path d="M3216 1905 c4 -8 8 -15 10 -15 2 0 4 7 4 15 0 8 -4 15 -10 15 -5 0
-7 -7 -4 -15z"/>
<path d="M3250 1903 c0 -6 8 -17 18 -24 16 -13 16 -13 2 6 -8 11 -16 22 -17
24 -2 2 -3 0 -3 -6z"/>
<path d="M3286 1897 c3 -10 9 -15 12 -12 3 3 0 11 -7 18 -10 9 -11 8 -5 -6z"/>
<path d="M3420 1780 c0 -5 5 -10 11 -10 5 0 7 5 4 10 -3 6 -8 10 -11 10 -2 0
-4 -4 -4 -10z"/>
<path d="M3310 2611 l35 -29 0 -151 c0 -83 0 -151 0 -151 0 4 103 50 112 50
10 0 13 28 13 128 l0 127 134 -5 c151 -6 173 -14 211 -83 27 -50 49 -49 41 1
-3 20 -8 61 -12 90 l-6 52 -281 0 -281 0 34 -29z m490 -2 c0 -5 5 -9 11 -9 5
0 7 5 4 10 -3 6 -1 10 5 10 5 0 10 -12 9 -27 0 -16 3 -46 7 -67 5 -29 4 -37
-4 -32 -7 4 -12 18 -12 32 0 14 -4 22 -10 19 -5 -3 -10 0 -10 8 0 22 -41 38
-110 42 -58 4 -58 4 -40 15 21 14 84 12 99 -2 10 -11 11 -10 6 3 -5 13 -1 15
19 12 14 -3 26 -9 26 -14z m-171 -7 c0 -9 -2 -12 -5 -7 -6 14 -140 11 -157 -3
-8 -7 -12 -25 -10 -44 3 -31 2 -31 -8 -10 -7 12 -16 22 -21 22 -5 0 0 -13 11
-29 23 -32 28 -91 9 -91 -9 0 -9 -3 -3 -8 16 -11 19 -75 3 -66 -9 6 -9 3 1 -9
12 -15 10 -17 -18 -13 -17 2 -31 -1 -31 -6 0 -5 -6 -3 -14 5 -8 7 -14 25 -13
38 1 13 -2 34 -6 45 -5 15 -2 27 8 37 8 9 10 17 5 19 -6 2 -12 18 -14 36 -3
18 -1 30 5 27 5 -4 9 1 9 10 0 10 -5 13 -12 9 -7 -4 -8 -3 -4 4 4 7 3 12 -2
12 -5 0 -12 9 -15 19 -4 18 3 19 139 20 130 0 144 -1 143 -17z"/>
<path d="M3360 2606 c0 -3 11 -17 24 -31 19 -21 23 -22 20 -8 -5 16 -44 51
-44 39z"/>
<path d="M3415 2580 c3 -5 8 -10 11 -10 2 0 4 5 4 10 0 6 -5 10 -11 10 -5 0
-7 -4 -4 -10z"/>
<path d="M3388 2503 c6 -2 18 -2 25 0 6 3 1 5 -13 5 -14 0 -19 -2 -12 -5z"/>
<path d="M3428 2463 c7 -3 16 -2 19 1 4 3 -2 6 -13 5 -11 0 -14 -3 -6 -6z"/>
<path d="M3381 2450 c-10 -6 -10 -9 -1 -15 6 -4 14 -4 17 -1 3 3 12 -2 19 -12
12 -15 13 -15 8 5 -7 25 -25 35 -43 23z"/>
<path d="M3390 2400 c20 -13 33 -13 25 0 -3 6 -14 10 -23 10 -15 0 -15 -2 -2
-10z"/>
<path d="M3390 2376 c0 -2 7 -7 16 -10 8 -3 12 -2 9 4 -6 10 -25 14 -25 6z"/>
<path d="M1010 2620 c18 -12 30 -13 30 -2 0 4 -10 9 -22 9 -18 2 -20 0 -8 -7z"/>
<path d="M285 2590 c3 -5 11 -10 16 -10 6 0 7 5 4 10 -3 6 -11 10 -16 10 -6 0
-7 -4 -4 -10z"/>
<path d="M685 2590 c3 -5 11 -10 16 -10 6 0 7 5 4 10 -3 6 -11 10 -16 10 -6 0
-7 -4 -4 -10z"/>
<path d="M747 2589 c7 -7 15 -10 18 -7 3 3 -2 9 -12 12 -14 6 -15 5 -6 -5z"/>
<path d="M497 2579 c7 -7 15 -10 18 -7 3 3 -2 9 -12 12 -14 6 -15 5 -6 -5z"/>
<path d="M4058 2583 c7 -3 16 -2 19 1 4 3 -2 6 -13 5 -11 0 -14 -3 -6 -6z"/>
<path d="M1430 2576 c0 -2 8 -10 18 -17 15 -13 16 -12 3 4 -13 16 -21 21 -21
13z"/>
<path d="M5470 2566 c0 -2 8 -10 18 -17 15 -13 16 -12 3 4 -13 16 -21 21 -21
13z"/>
<path d="M770 2550 c0 -5 5 -10 10 -10 6 0 10 5 10 10 0 6 -4 10 -10 10 -5 0
-10 -4 -10 -10z"/>
<path d="M1520 2550 c0 -6 7 -10 15 -10 8 0 15 2 15 4 0 2 -7 6 -15 10 -8 3
-15 1 -15 -4z"/>
<path d="M4630 2542 c0 -12 19 -26 26 -19 2 2 -2 10 -11 17 -9 8 -15 8 -15 2z"/>
<path d="M4230 2536 c0 -2 7 -7 16 -10 8 -3 12 -2 9 4 -6 10 -25 14 -25 6z"/>
<path d="M4875 2530 c3 -5 11 -10 16 -10 6 0 7 5 4 10 -3 6 -11 10 -16 10 -6
0 -7 -4 -4 -10z"/>
<path d="M2830 2514 c-19 -7 -47 -13 -62 -13 l-28 -1 1 -166 1 -165 40 46 c22
25 50 48 63 51 23 6 24 9 27 131 2 69 1 126 -2 127 -3 1 -21 -3 -40 -10z m0
-34 c0 -5 7 -10 15 -10 22 0 18 -80 -4 -81 -13 -1 -13 -2 2 -6 9 -2 17 -11 17
-19 0 -8 -4 -13 -9 -10 -5 3 -11 -1 -14 -9 -4 -9 -1 -12 9 -8 7 3 14 0 14 -6
0 -10 -14 -15 -33 -12 -5 1 -6 -3 -2 -9 3 -5 14 -10 23 -10 9 -1 0 -9 -21 -19
-20 -9 -34 -21 -30 -26 5 -4 0 -5 -9 -2 -9 3 -18 1 -20 -4 -2 -5 -4 8 -4 31
-1 38 8 51 20 31 4 -5 0 -12 -6 -14 -7 -3 -2 -6 11 -6 l24 -1 -24 26 -24 26
30 -7 c23 -5 26 -4 15 4 -8 6 -24 11 -35 11 -16 0 -17 2 -6 9 9 6 25 5 40 0
25 -9 25 -8 7 6 -11 8 -28 13 -38 9 -20 -6 -25 11 -5 19 8 4 8 8 2 14 -5 4
-12 17 -13 28 -3 15 -1 17 8 8 7 -6 19 -9 27 -6 12 5 10 9 -8 19 l-24 13 25
10 c33 13 40 13 40 1z"/>
<path d="M2797 2399 c7 -7 15 -10 18 -7 3 3 -2 9 -12 12 -14 6 -15 5 -6 -5z"/>
<path d="M475 2510 c3 -5 11 -10 16 -10 6 0 7 5 4 10 -3 6 -11 10 -16 10 -6 0
-7 -4 -4 -10z"/>
<path d="M1670 2510 c20 -13 33 -13 25 0 -3 6 -14 10 -23 10 -15 0 -15 -2 -2
-10z"/>
<path d="M1515 2490 c10 -11 20 -20 23 -20 3 0 -3 9 -13 20 -10 11 -20 20 -23
20 -3 0 3 -9 13 -20z"/>
<path d="M1235 2490 c27 -12 43 -12 25 0 -8 5 -22 9 -30 9 -10 0 -8 -3 5 -9z"/>
<path d="M2121 2484 c0 -11 3 -14 6 -6 3 7 2 16 -1 19 -3 4 -6 -2 -5 -13z"/>
<path d="M800 2480 c0 -6 7 -10 15 -10 8 0 15 2 15 4 0 2 -7 6 -15 10 -8 3
-15 1 -15 -4z"/>
<path d="M1292 2470 c14 -22 24 -25 32 -11 3 4 -6 13 -19 19 -23 11 -24 10
-13 -8z"/>
<path d="M1397 2469 c7 -7 15 -10 18 -7 3 3 -2 9 -12 12 -14 6 -15 5 -6 -5z"/>
<path d="M1897 2469 c7 -7 15 -10 18 -7 3 3 -2 9 -12 12 -14 6 -15 5 -6 -5z"/>
<path d="M3538 2473 c7 -3 16 -2 19 1 4 3 -2 6 -13 5 -11 0 -14 -3 -6 -6z"/>
<path d="M4518 2473 c7 -3 16 -2 19 1 4 3 -2 6 -13 5 -11 0 -14 -3 -6 -6z"/>
<path d="M3920 2460 c-13 -8 -12 -10 3 -10 9 0 17 5 17 10 0 12 -1 12 -20 0z"/>
<path d="M1470 2456 c0 -2 7 -7 16 -10 8 -3 12 -2 9 4 -6 10 -25 14 -25 6z"/>
<path d="M290 2440 c8 -5 22 -10 30 -10 13 0 13 1 0 10 -8 5 -22 10 -30 10
-13 0 -13 -1 0 -10z"/>
<path d="M2278 2443 c7 -3 16 -2 19 1 4 3 -2 6 -13 5 -11 0 -14 -3 -6 -6z"/>
<path d="M2347 2439 c7 -7 15 -10 18 -7 3 3 -2 9 -12 12 -14 6 -15 5 -6 -5z"/>
<path d="M4436 2435 c10 -8 24 -14 29 -14 6 0 1 6 -9 14 -11 8 -24 15 -30 15
-5 0 -1 -7 10 -15z"/>
<path d="M1415 2430 c3 -5 8 -10 11 -10 2 0 4 5 4 10 0 6 -5 10 -11 10 -5 0
-7 -4 -4 -10z"/>
<path d="M4310 2432 c0 -4 12 -8 28 -9 23 -1 24 -1 7 7 -26 11 -35 12 -35 2z"/>
<path d="M4980 2429 c0 -5 5 -7 10 -4 6 3 10 8 10 11 0 2 -4 4 -10 4 -5 0 -10
-5 -10 -11z"/>
<path d="M890 2416 c0 -2 9 -6 20 -9 11 -3 18 -1 14 4 -5 9 -34 13 -34 5z"/>
<path d="M2110 2410 c0 -6 7 -10 15 -10 8 0 15 2 15 4 0 2 -7 6 -15 10 -8 3
-15 1 -15 -4z"/>
<path d="M2200 2409 c0 -5 5 -7 10 -4 6 3 10 8 10 11 0 2 -4 4 -10 4 -5 0 -10
-5 -10 -11z"/>
<path d="M1625 2400 c3 -5 8 -10 11 -10 2 0 4 5 4 10 0 6 -5 10 -11 10 -5 0
-7 -4 -4 -10z"/>
<path d="M958 2393 c7 -3 16 -2 19 1 4 3 -2 6 -13 5 -11 0 -14 -3 -6 -6z"/>
<path d="M5555 2390 c3 -5 11 -10 16 -10 6 0 7 5 4 10 -3 6 -11 10 -16 10 -6
0 -7 -4 -4 -10z"/>
<path d="M402 2374 c10 -10 20 -15 24 -12 3 4 -5 12 -18 18 -22 12 -22 12 -6
-6z"/>
<path d="M4540 2380 c0 -5 5 -10 11 -10 5 0 7 5 4 10 -3 6 -8 10 -11 10 -2 0
-4 -4 -4 -10z"/>
<path d="M987 2359 c7 -7 15 -10 18 -7 3 3 -2 9 -12 12 -14 6 -15 5 -6 -5z"/>
<path d="M1655 2360 c-3 -5 -1 -10 4 -10 6 0 11 5 11 10 0 6 -2 10 -4 10 -3 0
-8 -4 -11 -10z"/>
<path d="M4450 2366 c0 -2 7 -7 16 -10 8 -3 12 -2 9 4 -6 10 -25 14 -25 6z"/>
<path d="M660 2345 c7 -9 15 -13 17 -11 7 7 -7 26 -19 26 -6 0 -6 -6 2 -15z"/>
<path d="M790 2349 c0 -5 5 -7 10 -4 6 3 10 8 10 11 0 2 -4 4 -10 4 -5 0 -10
-5 -10 -11z"/>
<path d="M2382 2346 c7 -8 16 -12 21 -9 11 7 -2 23 -19 23 -12 0 -12 -2 -2
-14z"/>
<path d="M3742 2338 c-20 -20 -35 -23 -150 -29 -111 -5 -134 -9 -178 -32 -70
-36 -108 -70 -153 -136 l-39 -57 27 -37 c14 -20 28 -37 31 -37 3 0 13 18 24
40 47 99 120 140 264 151 115 8 153 24 189 79 22 32 31 80 15 80 -4 0 -18 -10
-30 -22z m8 -50 c0 -4 -7 -8 -15 -8 -8 0 -15 -6 -15 -14 0 -8 -4 -17 -9 -20
-5 -3 -8 2 -7 11 0 9 -4 18 -11 20 -7 3 -10 -5 -9 -20 2 -20 -1 -23 -17 -19
-12 3 -18 1 -14 -5 6 -10 -43 -9 -70 2 -7 2 -13 1 -13 -4 0 -4 -13 -6 -30 -3
-19 3 -30 0 -30 -8 0 -7 -8 -9 -19 -5 -11 3 -22 1 -26 -5 -4 -6 -13 -9 -20 -6
-8 3 -18 -1 -24 -8 -7 -8 -22 -11 -39 -8 -23 4 -25 3 -15 -10 11 -12 9 -17
-13 -26 -23 -11 -64 -2 -64 14 0 3 5 2 10 -1 6 -3 10 -1 10 4 0 18 41 53 55
47 9 -3 12 0 9 8 -3 8 0 17 7 22 7 4 10 3 6 -3 -4 -6 -1 -13 7 -16 9 -4 12 0
9 12 -3 11 2 21 12 25 9 3 13 2 10 -4 -3 -6 10 -1 29 11 20 12 43 18 51 15 8
-3 15 -1 15 5 0 7 41 9 115 8 63 -2 115 -6 115 -11z m-426 -170 c-3 -4 -10 -5
-16 -2 -6 4 -8 -1 -3 -15 5 -16 3 -20 -9 -15 -12 5 -15 2 -10 -10 3 -9 1 -16
-6 -16 -6 0 -8 -5 -4 -12 4 -6 3 -8 -2 -5 -6 3 -11 22 -12 42 -2 27 1 35 9 29
8 -5 10 -2 6 8 -3 9 -3 18 0 21 8 9 53 -15 47 -25z"/>
<path d="M3475 2270 c-3 -5 -1 -10 4 -10 6 0 11 5 11 10 0 6 -2 10 -4 10 -3 0
-8 -4 -11 -10z"/>
<path d="M3530 2271 c0 -5 11 -8 25 -8 30 0 28 6 -4 12 -11 2 -21 0 -21 -4z"/>
<path d="M3592 2268 c5 -15 28 -23 28 -10 0 5 -7 13 -16 16 -10 4 -14 1 -12
-6z"/>
<path d="M3470 2241 c0 -9 -8 -11 -26 -7 -17 5 -23 3 -19 -4 3 -5 15 -10 25
-10 20 0 36 17 26 27 -3 4 -6 1 -6 -6z"/>
<path d="M3340 2170 c0 -5 5 -10 11 -10 5 0 7 5 4 10 -3 6 -8 10 -11 10 -2 0
-4 -4 -4 -10z"/>
<path d="M5565 2350 c3 -5 8 -10 11 -10 2 0 4 5 4 10 0 6 -5 10 -11 10 -5 0
-7 -4 -4 -10z"/>
<path d="M310 2330 c0 -5 5 -10 11 -10 5 0 7 5 4 10 -3 6 -8 10 -11 10 -2 0
-4 -4 -4 -10z"/>
<path d="M2290 2330 c0 -5 5 -10 11 -10 5 0 7 5 4 10 -3 6 -8 10 -11 10 -2 0
-4 -4 -4 -10z"/>
<path d="M5350 2336 c0 -3 9 -10 20 -16 11 -6 20 -8 20 -6 0 3 -9 10 -20 16
-11 6 -20 8 -20 6z"/>
<path d="M838 2323 c7 -3 16 -2 19 1 4 3 -2 6 -13 5 -11 0 -14 -3 -6 -6z"/>
<path d="M2320 2320 c0 -5 5 -10 10 -10 6 0 10 5 10 10 0 6 -4 10 -10 10 -5 0
-10 -4 -10 -10z"/>
<path d="M4647 2319 c7 -7 15 -10 18 -7 3 3 -2 9 -12 12 -14 6 -15 5 -6 -5z"/>
<path d="M1625 2310 c3 -5 8 -10 11 -10 2 0 4 5 4 10 0 6 -5 10 -11 10 -5 0
-7 -4 -4 -10z"/>
<path d="M4232 2304 c10 -10 20 -16 22 -13 3 3 -5 11 -17 18 -21 13 -21 12 -5
-5z"/>
<path d="M965 2300 c3 -5 8 -10 11 -10 2 0 4 5 4 10 0 6 -5 10 -11 10 -5 0 -7
-4 -4 -10z"/>
<path d="M1900 2300 c0 -5 5 -10 10 -10 6 0 10 5 10 10 0 6 -4 10 -10 10 -5 0
-10 -4 -10 -10z"/>
<path d="M4478 2303 c6 -2 18 -2 25 0 6 3 1 5 -13 5 -14 0 -19 -2 -12 -5z"/>
<path d="M1074 2285 c36 -19 41 -19 22 0 -8 8 -23 15 -33 15 -13 0 -10 -4 11
-15z"/>
<path d="M1508 2293 c7 -3 16 -2 19 1 4 3 -2 6 -13 5 -11 0 -14 -3 -6 -6z"/>
<path d="M4818 2293 c7 -3 16 -2 19 1 4 3 -2 6 -13 5 -11 0 -14 -3 -6 -6z"/>
<path d="M4860 2279 c0 -5 5 -7 10 -4 6 3 10 8 10 11 0 2 -4 4 -10 4 -5 0 -10
-5 -10 -11z"/>
<path d="M700 2266 c0 -2 7 -7 16 -10 8 -3 12 -2 9 4 -6 10 -25 14 -25 6z"/>
<path d="M1560 2266 c0 -2 7 -9 15 -16 13 -11 14 -10 9 4 -5 14 -24 23 -24 12z"/>
<path d="M612 2244 c10 -10 20 -16 22 -13 3 3 -5 11 -17 18 -21 13 -21 12 -5
-5z"/>
<path d="M4920 2251 c0 -10 30 -24 37 -17 3 2 -5 9 -16 16 -12 6 -21 7 -21 1z"/>
<path d="M385 2240 c3 -5 8 -10 11 -10 2 0 4 5 4 10 0 6 -5 10 -11 10 -5 0 -7
-4 -4 -10z"/>
<path d="M1120 2240 c0 -5 5 -10 11 -10 5 0 7 5 4 10 -3 6 -8 10 -11 10 -2 0
-4 -4 -4 -10z"/>
<path d="M2221 2247 c2 -1 13 -9 24 -17 19 -14 19 -14 6 3 -7 9 -18 17 -24 17
-6 0 -8 -1 -6 -3z"/>
<path d="M4598 2243 c7 -3 16 -2 19 1 4 3 -2 6 -13 5 -11 0 -14 -3 -6 -6z"/>
<path d="M1156 2232 c-3 -5 1 -9 9 -9 8 0 12 4 9 9 -3 4 -7 8 -9 8 -2 0 -6 -4
-9 -8z"/>
<path d="M860 2226 c0 -2 7 -6 15 -10 8 -3 15 -1 15 4 0 6 -7 10 -15 10 -8 0
-15 -2 -15 -4z"/>
<path d="M4640 2220 c8 -5 20 -10 25 -10 6 0 3 5 -5 10 -8 5 -19 10 -25 10 -5
0 -3 -5 5 -10z"/>
<path d="M828 2213 c7 -3 16 -2 19 1 4 3 -2 6 -13 5 -11 0 -14 -3 -6 -6z"/>
<path d="M5678 2213 c7 -3 16 -2 19 1 4 3 -2 6 -13 5 -11 0 -14 -3 -6 -6z"/>
<path d="M4093 2193 c9 -2 23 -2 30 0 6 3 -1 5 -18 5 -16 0 -22 -2 -12 -5z"/>
<path d="M4328 2173 c7 -3 16 -2 19 1 4 3 -2 6 -13 5 -11 0 -14 -3 -6 -6z"/>
<path d="M5620 2170 c8 -5 20 -10 25 -10 6 0 3 5 -5 10 -8 5 -19 10 -25 10 -5
0 -3 -5 5 -10z"/>
<path d="M1890 2160 c0 -5 5 -10 11 -10 5 0 7 5 4 10 -3 6 -8 10 -11 10 -2 0
-4 -4 -4 -10z"/>
<path d="M2608 2163 c7 -3 16 -2 19 1 4 3 -2 6 -13 5 -11 0 -14 -3 -6 -6z"/>
<path d="M3428 2140 c-60 -40 -77 -77 -69 -155 l6 -60 54 -29 c110 -59 255
-79 381 -53 l55 12 17 60 c28 103 20 153 -15 80 -9 -19 -35 -47 -58 -62 -37
-25 -54 -28 -135 -31 -105 -4 -159 13 -175 57 -6 14 -9 65 -8 113 1 49 0 91
-3 93 -3 3 -25 -9 -50 -25z m42 -17 c0 -7 -8 -14 -17 -14 -17 -1 -17 -2 0 -6
17 -5 25 -43 8 -43 -5 0 -7 -10 -3 -22 5 -22 4 -22 -15 -5 -11 9 -26 17 -34
17 -8 0 3 -11 23 -24 30 -18 35 -25 25 -36 -10 -10 -9 -11 2 -5 11 6 13 4 8
-8 -8 -20 73 -104 87 -90 3 3 13 2 23 -2 10 -4 33 -7 52 -6 24 2 32 -1 28 -11
-2 -7 -8 -12 -13 -11 -5 0 -29 3 -54 6 -58 7 -82 16 -73 31 4 6 -1 5 -10 -3
-15 -12 -20 -11 -40 5 -12 11 -25 23 -28 28 -4 5 -14 6 -24 3 -9 -4 -14 -3
-11 2 3 5 -1 12 -10 15 -8 3 -12 10 -9 16 3 5 2 10 -3 10 -5 0 -8 16 -8 35 1
19 5 35 9 35 4 0 7 6 6 13 -1 6 1 20 6 30 6 14 10 15 22 5 12 -10 14 -9 12 3
-3 22 10 46 26 46 8 0 15 -6 15 -14z m394 -178 c-4 -8 -11 -15 -16 -15 -6 0
-8 -7 -4 -15 3 -8 0 -15 -7 -16 -9 0 -9 -2 1 -6 20 -8 14 -26 -8 -20 -11 3
-18 1 -14 -4 3 -5 -10 -9 -28 -9 -19 0 -40 -6 -47 -12 -7 -7 -12 -8 -11 -3 4
20 0 35 -10 35 -5 0 -7 -6 -5 -12 3 -8 -4 -14 -20 -14 -14 -1 -25 2 -25 6 0
13 96 44 132 43 9 0 16 2 15 6 -2 8 35 51 45 51 4 0 5 -7 2 -15z"/>
<path d="M3400 2070 c0 -5 5 -10 11 -10 5 0 7 5 4 10 -3 6 -8 10 -11 10 -2 0
-4 -4 -4 -10z"/>
<path d="M3395 1991 c-3 -5 -1 -12 5 -16 5 -3 10 1 10 9 0 18 -6 21 -15 7z"/>
<path d="M3770 1885 c-10 -12 -10 -15 4 -15 9 0 16 7 16 15 0 8 -2 15 -4 15
-2 0 -9 -7 -16 -15z"/>
<path d="M890 2150 c0 -5 5 -10 11 -10 5 0 7 5 4 10 -3 6 -8 10 -11 10 -2 0
-4 -4 -4 -10z"/>
<path d="M4858 2153 c7 -3 16 -2 19 1 4 3 -2 6 -13 5 -11 0 -14 -3 -6 -6z"/>
<path d="M1685 2140 c3 -5 8 -10 11 -10 2 0 4 5 4 10 0 6 -5 10 -11 10 -5 0
-7 -4 -4 -10z"/>
<path d="M410 2100 c0 -5 5 -10 11 -10 5 0 7 5 4 10 -3 6 -8 10 -11 10 -2 0
-4 -4 -4 -10z"/>
<path d="M754 2091 c20 -22 26 -25 26 -13 0 4 -10 13 -22 21 -23 14 -23 14 -4
-8z"/>
<path d="M4700 2090 c0 -5 5 -10 11 -10 5 0 7 5 4 10 -3 6 -8 10 -11 10 -2 0
-4 -4 -4 -10z"/>
<path d="M4935 2090 c3 -5 10 -10 16 -10 5 0 9 5 9 10 0 6 -7 10 -16 10 -8 0
-12 -4 -9 -10z"/>
<path d="M5588 2073 c7 -3 16 -2 19 1 4 3 -2 6 -13 5 -11 0 -14 -3 -6 -6z"/>
<path d="M4738 2063 c6 -2 18 -2 25 0 6 3 1 5 -13 5 -14 0 -19 -2 -12 -5z"/>
<path d="M5095 2060 c3 -5 8 -10 11 -10 2 0 4 5 4 10 0 6 -5 10 -11 10 -5 0
-7 -4 -4 -10z"/>
<path d="M420 2050 c0 -5 5 -10 11 -10 5 0 7 5 4 10 -3 6 -8 10 -11 10 -2 0
-4 -4 -4 -10z"/>
<path d="M2670 2051 c0 -5 7 -12 16 -15 14 -5 15 -4 4 9 -14 17 -20 19 -20 6z"/>
<path d="M2370 2046 c0 -2 7 -7 16 -10 8 -3 12 -2 9 4 -6 10 -25 14 -25 6z"/>
<path d="M5155 2040 c28 -12 37 -12 30 0 -3 6 -16 10 -28 9 -21 0 -21 -1 -2
-9z"/>
<path d="M5258 2043 c6 -2 18 -2 25 0 6 3 1 5 -13 5 -14 0 -19 -2 -12 -5z"/>
<path d="M1155 2030 c3 -5 8 -10 11 -10 2 0 4 5 4 10 0 6 -5 10 -11 10 -5 0
-7 -4 -4 -10z"/>
<path d="M4970 2030 c0 -5 5 -10 11 -10 5 0 7 5 4 10 -3 6 -8 10 -11 10 -2 0
-4 -4 -4 -10z"/>
<path d="M2245 2020 c11 -5 27 -9 35 -9 9 0 8 4 -5 9 -11 5 -27 9 -35 9 -9 0
-8 -4 5 -9z"/>
<path d="M1535 2010 c3 -5 8 -10 11 -10 2 0 4 5 4 10 0 6 -5 10 -11 10 -5 0
-7 -4 -4 -10z"/>
<path d="M1220 2004 c0 -2 9 -8 20 -14 11 -6 20 -7 20 -2 0 6 -9 12 -20 15
-11 3 -20 3 -20 1z"/>
<path d="M4756 1997 c3 -10 9 -15 12 -12 3 3 0 11 -7 18 -10 9 -11 8 -5 -6z"/>
<path d="M5040 1996 c0 -2 7 -7 16 -10 8 -3 12 -2 9 4 -6 10 -25 14 -25 6z"/>
<path d="M3585 1980 c27 -12 35 -12 35 0 0 6 -12 10 -27 9 -25 0 -26 -1 -8 -9z"/>
<path d="M1780 1941 c0 -5 7 -12 16 -15 14 -5 15 -4 4 9 -14 17 -20 19 -20 6z"/>
<path d="M4668 1933 c7 -3 16 -2 19 1 4 3 -2 6 -13 5 -11 0 -14 -3 -6 -6z"/>
<path d="M1148 1923 c7 -3 16 -2 19 1 4 3 -2 6 -13 5 -11 0 -14 -3 -6 -6z"/>
<path d="M780 1910 c0 -5 5 -10 11 -10 5 0 7 5 4 10 -3 6 -8 10 -11 10 -2 0
-4 -4 -4 -10z"/>
<path d="M1165 1900 c-3 -6 1 -7 9 -4 18 7 21 14 7 14 -6 0 -13 -4 -16 -10z"/>
<path d="M2775 1890 c-201 -18 -461 -83 -643 -161 -63 -27 -47 -33 24 -8 216
75 677 125 939 101 55 -5 102 -8 103 -6 2 1 -11 16 -29 32 -29 26 -44 31 -114
36 -163 13 -192 14 -280 6z m18 -25 c6 -6 10 -6 14 3 2 6 11 12 19 12 9 0 12
-4 9 -10 -3 -5 0 -10 7 -11 7 0 0 -5 -17 -10 -17 -5 -31 -5 -33 0 -2 5 -12 7
-22 4 -11 -3 -28 -2 -37 2 -16 7 -15 9 7 15 31 9 43 8 53 -5z m90 3 c4 -10 7
-10 14 -1 10 14 55 13 50 -1 -6 -18 -72 -19 -87 -2 -10 13 -10 16 3 16 8 0 18
-6 20 -12z m170 -5 l32 -7 -40 -6 c-22 -3 -45 -2 -52 3 -7 5 -17 6 -23 2 -5
-3 -10 1 -10 10 0 17 5 17 93 -2z m-339 -8 c3 -8 1 -15 -4 -15 -6 0 -10 7 -10
15 0 8 2 15 4 15 2 0 6 -7 10 -15z m-26 -10 c4 -4 -10 -5 -30 -2 -21 3 -40 1
-43 -4 -4 -5 -23 -9 -43 -8 l-37 1 45 12 c48 14 95 14 108 1z m442 5 c0 -5 -2
-10 -4 -10 -3 0 -8 5 -11 10 -3 6 -1 10 4 10 6 0 11 -4 11 -10z"/>
<path d="M550 1876 c14 -8 29 -12 33 -9 12 8 -14 23 -38 22 -18 0 -17 -1 5
-13z"/>
<path d="M710 1886 c0 -2 7 -7 16 -10 8 -3 12 -2 9 4 -6 10 -25 14 -25 6z"/>
<path d="M4898 1863 c7 -3 16 -2 19 1 4 3 -2 6 -13 5 -11 0 -14 -3 -6 -6z"/>
<path d="M635 1850 c3 -5 8 -10 11 -10 2 0 4 5 4 10 0 6 -5 10 -11 10 -5 0 -7
-4 -4 -10z"/>
<path d="M1210 1850 c0 -5 7 -7 15 -4 8 4 15 8 15 10 0 2 -7 4 -15 4 -8 0 -15
-4 -15 -10z"/>
<path d="M1520 1850 c0 -5 5 -10 11 -10 5 0 7 5 4 10 -3 6 -8 10 -11 10 -2 0
-4 -4 -4 -10z"/>
<path d="M1557 1849 c7 -7 15 -10 18 -7 3 3 -2 9 -12 12 -14 6 -15 5 -6 -5z"/>
<path d="M5157 1839 c7 -7 15 -10 18 -7 3 3 -2 9 -12 12 -14 6 -15 5 -6 -5z"/>
<path d="M305 1831 c-3 -5 -1 -12 5 -16 5 -3 10 1 10 9 0 18 -6 21 -15 7z"/>
<path d="M768 1823 c7 -3 16 -2 19 1 4 3 -2 6 -13 5 -11 0 -14 -3 -6 -6z"/>
<path d="M1038 1823 c6 -2 18 -2 25 0 6 3 1 5 -13 5 -14 0 -19 -2 -12 -5z"/>
<path d="M5020 1826 c0 -2 7 -7 16 -10 8 -3 12 -2 9 4 -6 10 -25 14 -25 6z"/>
<path d="M1183 1813 c9 -2 25 -2 35 0 9 3 1 5 -18 5 -19 0 -27 -2 -17 -5z"/>
<path d="M4950 1810 c-13 -8 -12 -10 3 -10 9 0 17 5 17 10 0 12 -1 12 -20 0z"/>
<path d="M895 1790 c3 -5 11 -10 16 -10 6 0 7 5 4 10 -3 6 -11 10 -16 10 -6 0
-7 -4 -4 -10z"/>
<path d="M2025 1790 c3 -5 8 -10 11 -10 2 0 4 5 4 10 0 6 -5 10 -11 10 -5 0
-7 -4 -4 -10z"/>
<path d="M4208 1793 c7 -3 16 -2 19 1 4 3 -2 6 -13 5 -11 0 -14 -3 -6 -6z"/>
<path d="M1377 1779 c7 -7 15 -10 18 -7 3 3 -2 9 -12 12 -14 6 -15 5 -6 -5z"/>
<path d="M416 1767 c3 -10 9 -15 12 -12 3 3 0 11 -7 18 -10 9 -11 8 -5 -6z"/>
<path d="M500 1776 c0 -2 7 -7 16 -10 8 -3 12 -2 9 4 -6 10 -25 14 -25 6z"/>
<path d="M4361 1754 c0 -11 3 -14 6 -6 3 7 2 16 -1 19 -3 4 -6 -2 -5 -13z"/>
<path d="M946 1752 c-3 -6 1 -13 10 -16 23 -9 28 -2 10 13 -8 7 -17 8 -20 3z"/>
<path d="M3068 1753 c7 -3 16 -2 19 1 4 3 -2 6 -13 5 -11 0 -14 -3 -6 -6z"/>
<path d="M645 1740 c-3 -5 -1 -10 4 -10 6 0 11 5 11 10 0 6 -2 10 -4 10 -3 0
-8 -4 -11 -10z"/>
<path d="M1750 1740 c0 -6 7 -10 15 -10 8 0 15 2 15 4 0 2 -7 6 -15 10 -8 3
-15 1 -15 -4z"/>
<path d="M5320 1741 c0 -6 4 -13 10 -16 6 -3 7 1 4 9 -7 18 -14 21 -14 7z"/>
<path d="M340 1723 c8 -3 19 -11 23 -17 6 -7 7 -6 4 4 -2 8 -12 16 -23 17 -13
2 -15 1 -4 -4z"/>
<path d="M4150 1720 c0 -5 5 -10 11 -10 5 0 7 5 4 10 -3 6 -8 10 -11 10 -2 0
-4 -4 -4 -10z"/>
<path d="M930 1716 c0 -2 7 -6 15 -10 8 -3 15 -1 15 4 0 6 -7 10 -15 10 -8 0
-15 -2 -15 -4z"/>
<path d="M1090 1710 c0 -5 5 -10 11 -10 5 0 7 5 4 10 -3 6 -8 10 -11 10 -2 0
-4 -4 -4 -10z"/>
<path d="M2748 1713 c7 -3 16 -2 19 1 4 3 -2 6 -13 5 -11 0 -14 -3 -6 -6z"/>
<path d="M4638 1698 c5 -5 16 -8 23 -6 8 3 3 7 -10 11 -17 4 -21 3 -13 -5z"/>
<path d="M978 1693 c7 -3 16 -2 19 1 4 3 -2 6 -13 5 -11 0 -14 -3 -6 -6z"/>
<path d="M3106 1685 c4 -8 11 -15 16 -15 6 0 5 6 -2 15 -7 8 -14 15 -16 15 -2
0 -1 -7 2 -15z"/>
<path d="M4292 1686 c7 -8 15 -12 17 -11 5 6 -10 25 -20 25 -5 0 -4 -6 3 -14z"/>
<path d="M5645 1690 c3 -5 11 -10 16 -10 6 0 7 5 4 10 -3 6 -11 10 -16 10 -6
0 -7 -4 -4 -10z"/>
<path d="M330 1680 c0 -5 5 -10 11 -10 5 0 7 5 4 10 -3 6 -8 10 -11 10 -2 0
-4 -4 -4 -10z"/>
<path d="M2901 1687 c2 -1 13 -9 24 -17 19 -14 19 -14 6 3 -7 9 -18 17 -24 17
-6 0 -8 -1 -6 -3z"/>
<path d="M1270 1676 c0 -2 8 -10 18 -17 15 -13 16 -12 3 4 -13 16 -21 21 -21
13z"/>
<path d="M1040 1660 c0 -5 5 -10 10 -10 6 0 10 5 10 10 0 6 -4 10 -10 10 -5 0
-10 -4 -10 -10z"/>
<path d="M2747 1649 c7 -7 15 -10 18 -7 3 3 -2 9 -12 12 -14 6 -15 5 -6 -5z"/>
<path d="M3190 1655 c0 -5 5 -17 10 -25 5 -8 10 -10 10 -5 0 6 -5 17 -10 25
-5 8 -10 11 -10 5z"/>
<path d="M5678 1653 c7 -3 16 -2 19 1 4 3 -2 6 -13 5 -11 0 -14 -3 -6 -6z"/>
<path d="M1345 1620 c10 -11 20 -20 23 -20 3 0 -3 9 -13 20 -10 11 -20 20 -23
20 -3 0 3 -9 13 -20z"/>
<path d="M630 1620 c0 -5 5 -10 10 -10 6 0 10 5 10 10 0 6 -4 10 -10 10 -5 0
-10 -4 -10 -10z"/>
<path d="M3387 1619 c7 -7 15 -10 18 -7 3 3 -2 9 -12 12 -14 6 -15 5 -6 -5z"/>
<path d="M4095 1620 c3 -5 11 -10 16 -10 6 0 7 5 4 10 -3 6 -11 10 -16 10 -6
0 -7 -4 -4 -10z"/>
<path d="M1165 1610 c3 -5 11 -10 16 -10 6 0 7 5 4 10 -3 6 -11 10 -16 10 -6
0 -7 -4 -4 -10z"/>
<path d="M4900 1595 c7 -8 17 -15 22 -15 5 0 3 7 -6 15 -8 8 -18 15 -22 15 -3
0 -1 -7 6 -15z"/>
<path d="M4675 1550 c-3 -5 -1 -10 4 -10 6 0 11 5 11 10 0 6 -2 10 -4 10 -3 0
-8 -4 -11 -10z"/>
<path d="M670 1540 c0 -5 5 -10 11 -10 5 0 7 5 4 10 -3 6 -8 10 -11 10 -2 0
-4 -4 -4 -10z"/>
<path d="M1480 1546 c0 -2 7 -7 16 -10 8 -3 12 -2 9 4 -6 10 -25 14 -25 6z"/>
<path d="M2460 1540 c0 -5 5 -10 11 -10 5 0 7 5 4 10 -3 6 -8 10 -11 10 -2 0
-4 -4 -4 -10z"/>
<path d="M4038 1533 c7 -3 16 -2 19 1 4 3 -2 6 -13 5 -11 0 -14 -3 -6 -6z"/>
<path d="M868 1523 c7 -3 16 -2 19 1 4 3 -2 6 -13 5 -11 0 -14 -3 -6 -6z"/>
<path d="M995 1500 c3 -5 8 -10 11 -10 2 0 4 5 4 10 0 6 -5 10 -11 10 -5 0 -7
-4 -4 -10z"/>
<path d="M5517 1499 c7 -7 15 -10 18 -7 3 3 -2 9 -12 12 -14 6 -15 5 -6 -5z"/>
<path d="M637 1489 c7 -7 15 -10 18 -7 3 3 -2 9 -12 12 -14 6 -15 5 -6 -5z"/>
<path d="M1190 1465 c0 -11 11 -15 41 -15 l40 0 -3 -100 -3 -100 25 0 25 0 -3
100 -4 100 41 0 c30 0 41 4 41 15 0 12 -18 15 -100 15 -82 0 -100 -3 -100 -15z"/>
<path d="M1430 1365 l0 -115 25 0 c25 0 25 1 20 55 l-5 55 55 0 55 0 0 -55 c0
-52 1 -55 25 -55 l25 0 0 115 0 115 -25 0 c-23 0 -25 -3 -25 -50 l0 -50 -55 0
-55 0 6 50 c6 49 5 50 -20 50 l-26 0 0 -115z"/>
<path d="M1690 1365 l0 -115 80 0 c67 0 80 3 80 16 0 14 -9 16 -55 12 l-55 -5
0 44 0 43 40 0 c26 0 40 5 40 13 0 9 -12 11 -40 9 l-40 -4 0 38 0 39 50 -3
c41 -3 50 -1 50 12 0 13 -13 16 -75 16 l-75 0 0 -115z"/>
<path d="M2002 1365 l-1 -115 27 0 c26 0 27 2 24 50 -2 29 0 50 6 50 6 0 26
-22 46 -50 30 -41 41 -50 67 -50 l31 0 -47 55 c-26 30 -43 55 -37 55 20 0 42
32 42 60 0 41 -32 60 -101 60 l-56 0 -1 -115z m102 79 c9 -8 16 -22 16 -29 0
-20 -28 -45 -51 -45 -16 0 -19 7 -19 45 0 38 3 45 19 45 11 0 27 -7 35 -16z"/>
<path d="M2257 1460 c-14 -11 -31 -36 -37 -56 -28 -84 22 -154 112 -154 44 0
54 4 84 34 29 29 34 41 34 81 0 40 -5 52 -34 81 -30 30 -41 34 -84 34 -34 0
-57 -6 -75 -20z m122 -26 c24 -30 28 -88 9 -129 -14 -30 -50 -42 -84 -26 -49
22 -60 116 -19 156 32 33 68 32 94 -1z"/>
<path d="M2498 1366 c-3 -104 -1 -116 14 -116 15 0 18 12 20 82 l3 81 34 -82
c19 -45 40 -80 45 -78 6 2 24 38 41 80 16 42 32 77 35 77 3 0 4 -36 3 -80 l-1
-80 26 0 27 0 -3 116 -3 115 -26 -3 c-22 -3 -30 -15 -57 -80 -17 -43 -33 -78
-36 -78 -3 0 -19 35 -36 78 -27 65 -35 77 -57 80 l-26 3 -3 -115z"/>
<path d="M2870 1471 c0 -6 -18 -52 -41 -103 -22 -51 -43 -99 -46 -105 -3 -8 3
-13 15 -13 14 0 24 10 32 34 10 30 15 34 52 38 40 4 42 2 56 -34 12 -31 20
-38 42 -38 l27 0 -48 113 c-37 84 -53 113 -69 115 -11 2 -20 -1 -20 -7z m42
-112 c2 -7 -11 -12 -30 -13 -25 -1 -31 2 -26 14 3 8 11 28 17 45 l11 30 13
-32 c7 -18 14 -37 15 -44z"/>
<path d="M3045 1365 c0 -105 2 -115 19 -115 16 0 18 7 14 80 -2 44 -1 80 2 80
3 -1 34 -37 69 -80 91 -112 99 -109 100 35 2 108 0 115 -18 115 -18 0 -19 -6
-14 -80 3 -44 4 -80 1 -80 -3 0 -35 36 -72 80 -93 112 -101 109 -101 -35z"/>
<path d="M3410 1365 l0 -115 80 0 c67 0 80 3 80 16 0 14 -8 16 -55 11 l-55 -6
0 46 0 45 40 -4 c31 -3 40 0 40 12 0 12 -9 15 -40 12 l-40 -4 0 38 0 39 50 -3
c41 -3 50 -1 50 12 0 13 -13 16 -75 16 l-75 0 0 -115z"/>
<path d="M3626 1461 c-11 -12 -16 -31 -14 -52 3 -28 10 -36 51 -57 53 -26 66
-44 47 -67 -16 -19 -50 -19 -77 0 -19 13 -22 13 -27 -2 -9 -23 11 -33 70 -33
62 0 87 21 82 72 -3 29 -10 37 -56 61 -42 23 -53 33 -50 50 2 17 10 22 33 21
17 0 38 -4 49 -9 14 -6 17 -4 14 11 -5 29 -97 33 -122 5z"/>
<path d="M3786 1465 c-4 -12 3 -15 34 -15 l40 0 0 -100 0 -100 26 0 26 0 -4
100 -3 100 38 0 c26 0 37 4 37 15 0 12 -17 15 -94 15 -74 0 -95 -3 -100 -15z"/>
<path d="M4070 1470 c0 -6 -20 -58 -44 -115 -39 -92 -42 -105 -26 -105 12 0
22 12 30 35 10 29 16 35 40 35 16 0 35 2 42 5 10 4 18 -7 27 -35 10 -35 16
-40 41 -40 l29 0 -23 53 c-13 28 -34 79 -48 112 -18 44 -31 61 -47 63 -11 2
-21 -2 -21 -8z m49 -120 c1 -4 -14 -4 -33 -2 l-34 4 16 40 16 41 17 -39 c10
-21 18 -41 18 -44z"/>
<path d="M4210 1465 c0 -11 11 -15 41 -15 l40 0 -3 -100 -3 -100 25 0 25 0 -3
100 -4 100 41 0 c30 0 41 4 41 15 0 12 -18 15 -100 15 -82 0 -100 -3 -100 -15z"/>
<path d="M4450 1365 l0 -115 80 0 c67 0 80 3 80 16 0 14 -9 16 -55 12 l-55 -5
0 44 0 43 40 0 c26 0 40 5 40 13 0 9 -12 11 -40 9 l-40 -4 0 38 0 39 50 -3
c41 -3 50 -1 50 12 0 13 -13 16 -75 16 l-75 0 0 -115z"/>
<path d="M4667 1462 c-20 -22 -22 -66 -4 -82 6 -6 30 -21 52 -34 50 -27 59
-62 19 -72 -18 -5 -37 -2 -55 9 -25 14 -28 14 -34 -1 -9 -23 14 -32 74 -30 45
3 57 7 74 29 17 24 18 30 6 55 -9 18 -32 37 -62 51 -33 16 -47 29 -47 43 0 28
43 37 76 15 25 -16 26 -16 22 7 -3 20 -9 23 -54 26 -39 2 -54 -1 -67 -16z"/>
<path d="M2625 1450 c3 -5 8 -10 11 -10 2 0 4 5 4 10 0 6 -5 10 -11 10 -5 0
-7 -4 -4 -10z"/>
<path d="M5678 1423 c7 -3 16 -2 19 1 4 3 -2 6 -13 5 -11 0 -14 -3 -6 -6z"/>
<path d="M665 1390 c3 -5 8 -10 11 -10 2 0 4 5 4 10 0 6 -5 10 -11 10 -5 0 -7
-4 -4 -10z"/>
<path d="M757 1359 c7 -7 15 -10 18 -7 3 3 -2 9 -12 12 -14 6 -15 5 -6 -5z"/>
<path d="M5057 1359 c7 -7 15 -10 18 -7 3 3 -2 9 -12 12 -14 6 -15 5 -6 -5z"/>
<path d="M882 1340 c7 -11 16 -20 20 -20 5 0 8 -7 8 -15 0 -8 5 -15 10 -15 11
0 2 20 -23 53 -19 24 -30 22 -15 -3z"/>
<path d="M3280 1342 c0 -5 7 -9 15 -9 8 0 12 4 9 9 -3 4 -9 8 -15 8 -5 0 -9
-4 -9 -8z"/>
<path d="M4865 1300 c3 -5 8 -10 11 -10 2 0 4 5 4 10 0 6 -5 10 -11 10 -5 0
-7 -4 -4 -10z"/>
<path d="M450 1286 c0 -2 7 -7 16 -10 8 -3 12 -2 9 4 -6 10 -25 14 -25 6z"/>
<path d="M4898 1283 c7 -3 16 -2 19 1 4 3 -2 6 -13 5 -11 0 -14 -3 -6 -6z"/>
<path d="M620 1246 c0 -2 7 -6 15 -10 8 -3 15 -1 15 4 0 6 -7 10 -15 10 -8 0
-15 -2 -15 -4z"/>
<path d="M3280 1246 c0 -2 13 -6 29 -8 17 -2 28 -1 25 4 -5 8 -54 12 -54 4z"/>
<path d="M4840 1226 c0 -2 7 -7 16 -10 8 -3 12 -2 9 4 -6 10 -25 14 -25 6z"/>
<path d="M348 1213 c7 -3 16 -2 19 1 4 3 -2 6 -13 5 -11 0 -14 -3 -6 -6z"/>
<path d="M395 1210 c3 -5 8 -10 11 -10 2 0 4 5 4 10 0 6 -5 10 -11 10 -5 0 -7
-4 -4 -10z"/>
<path d="M1217 1199 c4 -13 8 -18 11 -10 2 7 -1 18 -6 23 -8 8 -9 4 -5 -13z"/>
<path d="M5380 1215 c0 -8 73 -36 78 -30 3 3 3 5 0 5 -3 0 -22 7 -42 15 -20 8
-36 13 -36 10z"/>
<path d="M730 1200 c0 -13 11 -13 30 0 12 8 11 10 -7 10 -13 0 -23 -4 -23 -10z"/>
<path d="M4900 1200 c0 -5 5 -10 10 -10 6 0 10 5 10 10 0 6 -4 10 -10 10 -5 0
-10 -4 -10 -10z"/>
<path d="M5628 1198 c5 -5 16 -8 23 -6 8 3 3 7 -10 11 -17 4 -21 3 -13 -5z"/>
<path d="M800 1186 c0 -2 8 -10 18 -17 15 -13 16 -12 3 4 -13 16 -21 21 -21
13z"/>
<path d="M3308 1183 c7 -3 16 -2 19 1 4 3 -2 6 -13 5 -11 0 -14 -3 -6 -6z"/>
<path d="M5188 1173 c7 -3 16 -2 19 1 4 3 -2 6 -13 5 -11 0 -14 -3 -6 -6z"/>
<path d="M5510 1150 c8 -5 22 -10 30 -10 13 0 13 1 0 10 -8 5 -22 10 -30 10
-13 0 -13 -1 0 -10z"/>
<path d="M1105 1140 c27 -12 43 -12 25 0 -8 5 -22 9 -30 9 -10 0 -8 -3 5 -9z"/>
<path d="M4060 1140 c0 -5 5 -10 11 -10 5 0 7 5 4 10 -3 6 -8 10 -11 10 -2 0
-4 -4 -4 -10z"/>
<path d="M1640 1136 c0 -2 8 -10 18 -17 15 -13 16 -12 3 4 -13 16 -21 21 -21
13z"/>
<path d="M600 1116 c0 -2 7 -7 16 -10 8 -3 12 -2 9 4 -6 10 -25 14 -25 6z"/>
<path d="M2638 1113 c6 -2 18 -2 25 0 6 3 1 5 -13 5 -14 0 -19 -2 -12 -5z"/>
<path d="M870 1096 c0 -2 7 -7 16 -10 8 -3 12 -2 9 4 -6 10 -25 14 -25 6z"/>
<path d="M5381 1084 c0 -11 3 -14 6 -6 3 7 2 16 -1 19 -3 4 -6 -2 -5 -13z"/>
<path d="M5498 1093 c7 -3 16 -2 19 1 4 3 -2 6 -13 5 -11 0 -14 -3 -6 -6z"/>
<path d="M680 1086 c0 -2 7 -9 15 -16 13 -11 14 -10 9 4 -5 14 -24 23 -24 12z"/>
<path d="M1977 1073 c568 -2 1498 -2 2065 0 568 1 104 2 -1032 2 -1136 0
-1600 -1 -1033 -2z"/>
<path d="M730 1046 c0 -2 7 -7 16 -10 8 -3 12 -2 9 4 -6 10 -25 14 -25 6z"/>
<path d="M5170 1039 c0 -5 5 -7 10 -4 6 3 10 8 10 11 0 2 -4 4 -10 4 -5 0 -10
-5 -10 -11z"/>
<path d="M5360 1046 c0 -2 7 -6 15 -10 8 -3 15 -1 15 4 0 6 -7 10 -15 10 -8 0
-15 -2 -15 -4z"/>
<path d="M810 1034 c0 -13 18 -39 24 -34 2 3 -2 14 -10 24 -8 11 -14 16 -14
10z"/>
<path d="M5610 1030 c0 -5 5 -10 11 -10 5 0 7 5 4 10 -3 6 -8 10 -11 10 -2 0
-4 -4 -4 -10z"/>
<path d="M2240 1021 c0 -6 4 -13 10 -16 6 -3 7 1 4 9 -7 18 -14 21 -14 7z"/>
<path d="M4955 1020 c-3 -5 1 -10 10 -10 9 0 13 5 10 10 -3 6 -8 10 -10 10 -2
0 -7 -4 -10 -10z"/>
<path d="M545 1000 c3 -5 11 -10 16 -10 6 0 7 5 4 10 -3 6 -11 10 -16 10 -6 0
-7 -4 -4 -10z"/>
<path d="M3230 1006 c0 -2 7 -9 15 -16 9 -7 15 -8 15 -2 0 5 -7 12 -15 16 -8
3 -15 4 -15 2z"/>
<path d="M1075 990 c3 -5 8 -10 11 -10 2 0 4 5 4 10 0 6 -5 10 -11 10 -5 0 -7
-4 -4 -10z"/>
<path d="M5118 983 c6 -2 18 -2 25 0 6 3 1 5 -13 5 -14 0 -19 -2 -12 -5z"/>
<path d="M1024 965 c36 -19 45 -19 20 0 -10 8 -26 14 -34 15 -8 0 -2 -7 14
-15z"/>
<path d="M665 960 c3 -5 8 -10 11 -10 2 0 4 5 4 10 0 6 -5 10 -11 10 -5 0 -7
-4 -4 -10z"/>
<path d="M450 940 c0 -5 5 -10 10 -10 6 0 10 5 10 10 0 6 -4 10 -10 10 -5 0
-10 -4 -10 -10z"/>
<path d="M1456 942 c-3 -5 1 -9 9 -9 8 0 12 4 9 9 -3 4 -7 8 -9 8 -2 0 -6 -4
-9 -8z"/>
<path d="M5678 943 c6 -2 18 -2 25 0 6 3 1 5 -13 5 -14 0 -19 -2 -12 -5z"/>
<path d="M375 920 c3 -5 8 -10 11 -10 2 0 4 5 4 10 0 6 -5 10 -11 10 -5 0 -7
-4 -4 -10z"/>
<path d="M781 914 c0 -11 3 -14 6 -6 3 7 2 16 -1 19 -3 4 -6 -2 -5 -13z"/>
<path d="M1210 903 c0 -5 7 -17 15 -27 8 -11 15 -32 15 -48 0 -15 5 -28 10
-28 6 0 10 9 10 19 0 11 9 36 21 55 12 21 16 36 10 36 -6 0 -17 -12 -23 -26
l-12 -25 -13 25 c-13 24 -33 36 -33 19z"/>
<path d="M1320 895 c-16 -20 -16 -61 0 -80 19 -23 62 -14 79 16 13 24 13 29
-2 53 -20 29 -57 35 -77 11z m65 -25 c9 -27 -5 -50 -30 -50 -34 0 -46 38 -20
64 18 18 42 11 50 -14z"/>
<path d="M1430 861 c0 -41 4 -51 20 -56 11 -3 29 -3 40 0 16 5 20 15 20 56 0
27 -4 49 -10 49 -5 0 -10 -20 -10 -45 0 -38 -3 -45 -19 -45 -23 0 -34 28 -25
64 4 16 2 26 -5 26 -7 0 -11 -20 -11 -49z"/>
<path d="M1540 855 c0 -30 5 -55 10 -55 6 0 10 9 10 20 0 11 4 20 10 20 5 0
14 -9 20 -20 6 -11 16 -20 22 -20 6 0 5 9 -4 23 -11 16 -12 27 -5 38 16 26 1
49 -33 49 -30 0 -30 0 -30 -55z m50 20 c0 -8 -7 -15 -15 -15 -8 0 -15 7 -15
15 0 8 7 15 15 15 8 0 15 -7 15 -15z"/>
<path d="M1665 900 c3 -5 13 -10 21 -10 10 0 14 -12 14 -45 0 -25 5 -45 10
-45 6 0 10 20 10 45 0 33 4 45 15 45 8 0 15 5 15 10 0 6 -21 10 -46 10 -27 0
-43 -4 -39 -10z"/>
<path d="M1770 871 c0 -22 -3 -46 -6 -55 -4 -11 -1 -16 11 -16 12 0 15 5 10
20 -4 14 -2 20 9 20 8 0 18 -9 21 -20 3 -11 13 -20 21 -20 13 0 13 2 0 21 -11
16 -12 26 -4 39 17 27 3 50 -32 50 -28 0 -30 -2 -30 -39z m50 4 c0 -8 -9 -15
-20 -15 -11 0 -20 7 -20 15 0 8 9 15 20 15 11 0 20 -7 20 -15z"/>
<path d="M1860 867 c0 -47 13 -67 45 -67 12 0 26 5 33 12 14 14 16 98 2 98 -5
0 -10 -20 -10 -45 0 -41 -2 -45 -25 -45 -23 0 -25 4 -25 45 0 25 -4 45 -10 45
-5 0 -10 -19 -10 -43z"/>
<path d="M1977 903 c-16 -15 -6 -44 18 -53 14 -5 25 -14 25 -20 0 -5 -11 -10
-25 -10 -14 0 -25 -4 -25 -10 0 -14 43 -13 58 2 19 19 14 38 -14 48 -31 12
-27 36 6 32 14 -2 20 0 16 7 -8 12 -49 15 -59 4z"/>
<path d="M2050 900 c0 -5 7 -10 15 -10 11 0 15 -12 15 -45 0 -25 5 -45 10 -45
6 0 10 20 10 45 0 33 4 45 15 45 8 0 15 5 15 10 0 6 -18 10 -40 10 -22 0 -40
-4 -40 -10z"/>
<path d="M2150 855 c0 -54 0 -55 30 -55 17 0 30 5 30 10 0 6 -11 10 -25 10
-16 0 -25 6 -25 15 0 9 9 15 25 15 14 0 25 5 25 11 0 5 -10 9 -22 7 -11 -2
-23 3 -25 10 -3 7 5 12 21 12 14 0 26 5 26 10 0 6 -13 10 -30 10 -30 0 -30 -1
-30 -55z"/>
<path d="M2230 855 c0 -52 1 -55 26 -55 43 0 64 17 64 53 0 42 -15 57 -57 57
l-33 0 0 -55z m65 0 c0 -23 -5 -31 -22 -33 -20 -3 -23 1 -23 33 0 32 3 36 23
33 17 -2 22 -10 22 -33z"/>
<path d="M2385 855 c0 -35 4 -55 12 -55 6 0 9 8 6 19 -4 14 1 20 18 23 53 8
51 68 -3 68 l-33 0 0 -55z m55 20 c0 -8 -9 -15 -20 -15 -11 0 -20 7 -20 15 0
8 9 15 20 15 11 0 20 -7 20 -15z"/>
<path d="M2481 859 c-22 -53 -20 -78 3 -46 17 22 42 22 55 0 5 -10 12 -15 15
-12 8 7 -29 102 -41 106 -6 2 -20 -20 -32 -48z m39 6 c0 -8 -4 -15 -10 -15 -5
0 -10 7 -10 15 0 8 5 15 10 15 6 0 10 -7 10 -15z"/>
<path d="M2578 855 c-1 -30 0 -55 5 -55 4 0 7 9 7 19 0 31 19 35 32 7 6 -14
17 -26 25 -26 12 0 12 3 -1 21 -11 17 -12 26 -3 39 14 24 -6 50 -38 50 -21 0
-23 -5 -27 -55z m52 20 c0 -8 -9 -15 -20 -15 -11 0 -20 7 -20 15 0 8 9 15 20
15 11 0 20 -7 20 -15z"/>
<path d="M2660 900 c0 -5 7 -10 15 -10 11 0 15 -12 15 -45 0 -25 5 -45 10 -45
6 0 10 20 10 45 0 33 4 45 14 45 8 0 18 5 21 10 4 6 -12 10 -39 10 -25 0 -46
-4 -46 -10z"/>
<path d="M2760 855 c0 -30 5 -55 10 -55 6 0 10 19 10 43 l0 42 23 -39 c34 -60
47 -58 47 8 0 34 -4 56 -11 56 -7 0 -10 -15 -7 -40 4 -41 4 -41 -14 -18 -10
13 -20 31 -24 41 -3 9 -12 17 -20 17 -10 0 -14 -14 -14 -55z"/>
<path d="M2880 855 c0 -54 0 -55 30 -55 17 0 30 5 30 10 0 6 -11 10 -25 10
-16 0 -25 6 -25 15 0 9 9 15 25 15 14 0 25 5 25 11 0 5 -10 9 -22 7 -11 -2
-23 3 -25 10 -3 7 5 12 21 12 14 0 26 5 26 10 0 6 -13 10 -30 10 -30 0 -30 -1
-30 -55z"/>
<path d="M2960 855 c0 -30 5 -55 10 -55 6 0 10 9 10 19 0 31 19 35 32 7 6 -14
18 -26 26 -26 13 0 12 3 -2 19 -14 16 -15 23 -6 41 15 28 -3 50 -41 50 -28 0
-29 -1 -29 -55z m60 24 c0 -12 -29 -24 -37 -16 -3 4 -3 13 0 21 6 16 37 11 37
-5z"/>
<path d="M3100 855 c0 -30 5 -55 10 -55 6 0 10 25 10 55 0 30 -4 55 -10 55 -5
0 -10 -25 -10 -55z"/>
<path d="M3150 855 c0 -33 4 -55 11 -55 7 0 10 15 7 39 -4 45 11 41 32 -9 21
-50 40 -38 40 25 0 33 -4 55 -11 55 -7 0 -10 -15 -7 -40 2 -22 1 -40 -2 -40
-3 0 -14 18 -24 40 -28 58 -46 52 -46 -15z"/>
<path d="M3310 855 c0 -54 0 -55 30 -55 17 0 30 5 30 10 0 6 -9 10 -20 10 -11
0 -20 7 -20 15 0 8 9 15 20 15 11 0 20 5 20 11 0 6 -9 9 -20 6 -15 -4 -20 0
-20 13 0 13 5 17 20 13 11 -3 20 0 20 6 0 6 -13 11 -30 11 -30 0 -30 -1 -30
-55z"/>
<path d="M3380 908 c0 -14 40 -103 47 -105 6 -2 19 21 30 52 17 44 18 55 7 55
-8 0 -14 -6 -14 -14 0 -8 -5 -27 -11 -43 l-11 -28 -12 39 c-6 22 -17 41 -24
44 -6 2 -12 2 -12 0z"/>
<path d="M3490 855 l0 -55 35 0 c19 0 35 5 35 10 0 6 -11 10 -25 10 -16 0 -25
6 -25 15 0 8 9 15 20 15 11 0 20 5 20 11 0 6 -9 9 -20 6 -13 -3 -20 0 -20 9 0
8 10 14 25 14 14 0 25 5 25 10 0 6 -16 10 -35 10 l-35 0 0 -55z"/>
<path d="M3580 855 c0 -34 4 -55 11 -55 6 0 9 9 6 20 -3 13 0 20 8 20 8 0 17
-9 20 -20 3 -11 13 -20 21 -20 13 0 13 2 0 21 -11 16 -12 26 -4 39 17 27 3 50
-32 50 -30 0 -30 0 -30 -55z m50 19 c0 -8 -9 -14 -20 -14 -19 0 -27 19 -14 33
10 9 34 -4 34 -19z"/>
<path d="M3680 871 c11 -22 17 -47 14 -55 -4 -11 0 -16 11 -16 11 0 15 6 13
18 -3 9 4 34 14 55 10 20 14 37 8 37 -6 0 -16 -12 -22 -26 l-12 -25 -13 25
c-8 14 -18 26 -24 26 -5 0 0 -18 11 -39z"/>
<path d="M3803 893 c-4 -11 3 -23 20 -37 34 -27 34 -36 2 -36 -14 0 -25 -5
-25 -11 0 -6 14 -9 33 -7 43 4 51 42 13 60 -33 14 -33 28 -1 28 14 0 25 5 25
10 0 17 -60 11 -67 -7z"/>
<path d="M3901 896 c-19 -23 -9 -79 15 -91 12 -6 29 -17 38 -24 9 -8 20 -11
23 -7 4 4 1 11 -6 15 -11 7 -11 13 3 32 9 13 16 31 16 41 0 40 -64 65 -89 34z
m64 -26 c9 -28 -5 -50 -31 -50 -23 0 -30 13 -24 50 5 33 44 33 55 0z"/>
<path d="M4010 861 c0 -41 4 -51 20 -56 11 -3 29 -3 40 0 16 5 20 15 20 56 0
28 -5 49 -11 49 -7 0 -8 -11 -4 -29 8 -36 -9 -73 -30 -65 -10 4 -15 20 -15 50
0 24 -4 44 -10 44 -5 0 -10 -22 -10 -49z"/>
<path d="M4124 855 c-17 -43 -18 -55 -8 -55 8 0 14 7 14 15 0 9 9 15 24 15 13
0 26 -7 30 -15 3 -8 10 -15 15 -15 5 0 -1 25 -12 55 -12 30 -26 55 -32 55 -5
0 -20 -25 -31 -55z m46 3 c0 -5 -6 -8 -14 -8 -9 0 -12 7 -9 21 4 16 8 17 14 7
5 -7 9 -16 9 -20z"/>
<path d="M4220 855 c0 -30 5 -55 10 -55 6 0 10 9 10 20 0 26 14 25 33 -2 8
-13 18 -20 23 -15 4 4 1 15 -8 24 -13 12 -14 20 -6 33 17 27 3 50 -32 50 -30
0 -30 0 -30 -55z m55 14 c-11 -17 -35 -9 -35 11 0 18 3 19 20 10 11 -6 18 -15
15 -21z"/>
<path d="M4320 855 c0 -54 0 -55 30 -55 17 0 30 5 30 10 0 6 -9 10 -20 10 -11
0 -20 7 -20 15 0 8 9 15 20 15 11 0 20 5 20 11 0 6 -9 9 -20 6 -13 -3 -20 0
-20 9 0 8 9 14 20 14 11 0 20 5 20 10 0 6 -13 10 -30 10 -30 0 -30 -1 -30 -55z"/>
<path d="M4445 855 c0 -33 4 -55 11 -55 6 0 10 10 10 23 -1 15 4 21 16 19 9
-1 19 2 23 8 4 6 -4 10 -19 10 -16 0 -26 6 -26 15 0 9 9 15 25 15 14 0 25 5
25 10 0 6 -15 10 -32 10 l-33 0 0 -55z"/>
<path d="M4528 884 c-23 -50 37 -107 78 -74 17 15 19 71 2 88 -22 22 -67 14
-80 -14z m73 -13 c4 -46 -13 -66 -43 -50 -10 5 -18 21 -18 34 0 41 58 56 61
16z"/>
<path d="M4649 886 c-25 -53 24 -108 70 -79 20 12 27 69 10 89 -19 24 -68 18
-80 -10z m61 0 c6 -8 10 -25 8 -38 -4 -33 -52 -33 -56 0 -3 22 13 52 28 52 4
0 13 -7 20 -14z"/>
<path d="M4750 900 c0 -5 7 -10 15 -10 11 0 15 -12 15 -45 0 -25 5 -45 10 -45
6 0 10 20 10 45 0 33 4 45 15 45 8 0 15 5 15 10 0 6 -18 10 -40 10 -22 0 -40
-4 -40 -10z"/>
<path d="M5667 889 c7 -7 15 -10 18 -7 3 3 -2 9 -12 12 -14 6 -15 5 -6 -5z"/>
<path d="M4948 883 c7 -3 16 -2 19 1 4 3 -2 6 -13 5 -11 0 -14 -3 -6 -6z"/>
<path d="M1130 876 c0 -3 9 -10 20 -16 11 -6 20 -8 20 -6 0 3 -9 10 -20 16
-11 6 -20 8 -20 6z"/>
<path d="M840 860 c0 -5 5 -10 11 -10 5 0 7 5 4 10 -3 6 -8 10 -11 10 -2 0 -4
-4 -4 -10z"/>
<path d="M5048 853 c7 -3 16 -2 19 1 4 3 -2 6 -13 5 -11 0 -14 -3 -6 -6z"/>
<path d="M5130 850 c0 -5 5 -10 11 -10 5 0 7 5 4 10 -3 6 -8 10 -11 10 -2 0
-4 -4 -4 -10z"/>
<path d="M640 839 c0 -5 5 -7 10 -4 6 3 10 8 10 11 0 2 -4 4 -10 4 -5 0 -10
-5 -10 -11z"/>
<path d="M716 797 c3 -10 9 -15 12 -12 3 3 0 11 -7 18 -10 9 -11 8 -5 -6z"/>
<path d="M975 780 c3 -5 14 -10 23 -10 15 0 15 2 2 10 -20 13 -33 13 -25 0z"/>
<path d="M2350 783 c0 -5 10 -18 23 -29 l22 -19 -20 25 c-11 14 -21 27 -22 29
-2 2 -3 0 -3 -6z"/>
<path d="M3175 779 c-4 -6 -5 -12 -2 -15 2 -3 7 2 10 11 7 17 1 20 -8 4z"/>
<path d="M3386 777 c3 -10 9 -15 12 -12 3 3 0 11 -7 18 -10 9 -11 8 -5 -6z"/>
<path d="M4396 778 c3 -5 10 -6 15 -3 13 9 11 12 -6 12 -8 0 -12 -4 -9 -9z"/>
<path d="M1796 768 c3 -5 10 -6 15 -3 13 9 11 12 -6 12 -8 0 -12 -4 -9 -9z"/>
<path d="M2086 768 c3 -5 10 -6 15 -3 13 9 11 12 -6 12 -8 0 -12 -4 -9 -9z"/>
<path d="M460 763 c0 -13 27 -49 33 -43 3 3 -3 16 -14 29 -10 13 -19 19 -19
14z"/>
<path d="M4950 756 c0 -2 7 -7 16 -10 8 -3 12 -2 9 4 -6 10 -25 14 -25 6z"/>
<path d="M5667 749 c7 -7 15 -10 18 -7 3 3 -2 9 -12 12 -14 6 -15 5 -6 -5z"/>
<path d="M4640 736 c0 -2 7 -7 16 -10 8 -3 12 -2 9 4 -6 10 -25 14 -25 6z"/>
<path d="M4917 729 c7 -7 15 -10 18 -7 3 3 -2 9 -12 12 -14 6 -15 5 -6 -5z"/>
<path d="M615 720 c3 -5 8 -10 11 -10 2 0 4 5 4 10 0 6 -5 10 -11 10 -5 0 -7
-4 -4 -10z"/>
<path d="M3747 719 c7 -7 15 -10 18 -7 3 3 -2 9 -12 12 -14 6 -15 5 -6 -5z"/>
<path d="M310 700 c0 -5 10 -10 23 -10 18 0 19 2 7 10 -19 13 -30 13 -30 0z"/>
<path d="M2918 703 c7 -3 16 -2 19 1 4 3 -2 6 -13 5 -11 0 -14 -3 -6 -6z"/>
<path d="M880 687 c0 -10 8 -17 18 -17 9 0 13 4 7 8 -5 4 -13 11 -17 16 -5 5
-8 2 -8 -7z"/>
<path d="M5443 693 c9 -2 23 -2 30 0 6 3 -1 5 -18 5 -16 0 -22 -2 -12 -5z"/>
<path d="M2790 681 c0 -5 5 -13 10 -16 6 -3 10 -2 10 4 0 5 -4 13 -10 16 -5 3
-10 2 -10 -4z"/>
<path d="M3875 680 c3 -5 8 -10 11 -10 2 0 4 5 4 10 0 6 -5 10 -11 10 -5 0 -7
-4 -4 -10z"/>
<path d="M750 670 c0 -5 7 -7 15 -4 8 4 15 8 15 10 0 2 -7 4 -15 4 -8 0 -15
-4 -15 -10z"/>
<path d="M2935 669 c-4 -6 -5 -12 -2 -15 2 -3 7 2 10 11 7 17 1 20 -8 4z"/>
<path d="M4400 665 c0 -2 10 -10 23 -16 20 -11 21 -11 8 4 -13 16 -31 23 -31
12z"/>
<path d="M1770 651 c0 -5 5 -13 10 -16 6 -3 10 -2 10 4 0 5 -4 13 -10 16 -5 3
-10 2 -10 -4z"/>
<path d="M415 640 c4 -6 11 -8 16 -5 14 9 11 15 -7 15 -8 0 -12 -5 -9 -10z"/>
<path d="M1528 643 c7 -3 16 -2 19 1 4 3 -2 6 -13 5 -11 0 -14 -3 -6 -6z"/>
<path d="M1685 640 c3 -5 8 -10 11 -10 2 0 4 5 4 10 0 6 -5 10 -11 10 -5 0 -7
-4 -4 -10z"/>
<path d="M5110 646 c0 -2 8 -10 18 -17 15 -13 16 -12 3 4 -13 16 -21 21 -21
13z"/>
<path d="M3382 635 c3 -3 18 -8 34 -11 22 -3 25 -2 14 6 -15 10 -58 14 -48 5z"/>
<path d="M675 620 c3 -5 8 -10 11 -10 2 0 4 5 4 10 0 6 -5 10 -11 10 -5 0 -7
-4 -4 -10z"/>
<path d="M2308 612 c9 -10 19 -14 21 -9 2 5 -3 13 -10 18 -24 15 -30 10 -11
-9z"/>
<path d="M5648 623 c7 -3 16 -2 19 1 4 3 -2 6 -13 5 -11 0 -14 -3 -6 -6z"/>
<path d="M2570 610 c0 -5 5 -10 11 -10 5 0 7 5 4 10 -3 6 -8 10 -11 10 -2 0
-4 -4 -4 -10z"/>
<path d="M2783 595 c21 -15 40 -25 43 -22 7 7 -29 34 -56 42 -20 5 -17 1 13
-20z"/>
<path d="M4030 596 c0 -2 7 -9 15 -16 13 -11 14 -10 9 4 -5 14 -24 23 -24 12z"/>
<path d="M4540 580 c8 -5 24 -10 34 -10 26 0 18 6 -19 14 -22 5 -26 4 -15 -4z"/>
<path d="M2856 567 c3 -10 9 -15 12 -12 3 3 0 11 -7 18 -10 9 -11 8 -5 -6z"/>
<path d="M5640 566 c0 -9 5 -16 10 -16 6 0 10 4 10 9 0 6 -4 13 -10 16 -5 3
-10 -1 -10 -9z"/>
<path d="M2895 560 c3 -5 8 -10 11 -10 2 0 4 5 4 10 0 6 -5 10 -11 10 -5 0 -7
-4 -4 -10z"/>
<path d="M3344 551 c20 -22 26 -25 26 -13 0 4 -10 13 -22 21 -23 14 -23 14 -4
-8z"/>
<path d="M1450 546 c0 -2 7 -7 16 -10 8 -3 12 -2 9 4 -6 10 -25 14 -25 6z"/>
<path d="M1310 529 c0 -5 9 -9 20 -9 11 0 20 2 20 4 0 2 -9 6 -20 9 -11 3 -20
1 -20 -4z"/>
<path d="M2005 530 c3 -5 8 -10 11 -10 2 0 4 5 4 10 0 6 -5 10 -11 10 -5 0 -7
-4 -4 -10z"/>
<path d="M2590 530 c0 -5 5 -10 11 -10 5 0 7 5 4 10 -3 6 -8 10 -11 10 -2 0
-4 -4 -4 -10z"/>
<path d="M3890 536 c0 -2 7 -7 16 -10 8 -3 12 -2 9 4 -6 10 -25 14 -25 6z"/>
<path d="M1497 519 c7 -7 15 -10 18 -7 3 3 -2 9 -12 12 -14 6 -15 5 -6 -5z"/>
<path d="M3725 520 c3 -5 8 -10 11 -10 2 0 4 5 4 10 0 6 -5 10 -11 10 -5 0 -7
-4 -4 -10z"/>
<path d="M3080 513 c0 -4 5 -15 10 -23 8 -13 10 -13 10 2 0 9 -4 20 -10 23 -5
3 -10 3 -10 -2z"/>
<path d="M4608 503 c6 -2 18 -2 25 0 6 3 1 5 -13 5 -14 0 -19 -2 -12 -5z"/>
<path d="M1213 493 c9 -2 25 -2 35 0 9 3 1 5 -18 5 -19 0 -27 -2 -17 -5z"/>
<path d="M1460 490 c0 -5 9 -14 20 -20 11 -6 20 -9 20 -8 0 2 -9 11 -20 21
-11 9 -20 13 -20 7z"/>
<path d="M1690 490 c0 -5 5 -10 11 -10 5 0 7 5 4 10 -3 6 -8 10 -11 10 -2 0
-4 -4 -4 -10z"/>
<path d="M2826 487 c3 -10 9 -15 12 -12 3 3 0 11 -7 18 -10 9 -11 8 -5 -6z"/>
<path d="M2225 480 c3 -5 8 -10 11 -10 2 0 4 5 4 10 0 6 -5 10 -11 10 -5 0 -7
-4 -4 -10z"/>
<path d="M2538 483 c7 -3 16 -2 19 1 4 3 -2 6 -13 5 -11 0 -14 -3 -6 -6z"/>
<path d="M4025 480 c-3 -6 1 -7 9 -4 18 7 21 14 7 14 -6 0 -13 -4 -16 -10z"/>
<path d="M4570 480 c0 -5 5 -10 11 -10 5 0 7 5 4 10 -3 6 -8 10 -11 10 -2 0
-4 -4 -4 -10z"/>
<path d="M4300 476 c0 -2 7 -6 15 -10 8 -3 15 -1 15 4 0 6 -7 10 -15 10 -8 0
-15 -2 -15 -4z"/>
<path d="M4348 463 c7 -3 16 -2 19 1 4 3 -2 6 -13 5 -11 0 -14 -3 -6 -6z"/>
<path d="M4418 463 c6 -2 18 -2 25 0 6 3 1 5 -13 5 -14 0 -19 -2 -12 -5z"/>
<path d="M1535 450 c4 -6 11 -8 16 -5 14 9 11 15 -7 15 -8 0 -12 -5 -9 -10z"/>
<path d="M320 420 c0 -5 5 -10 10 -10 6 0 10 5 10 10 0 6 -4 10 -10 10 -5 0
-10 -4 -10 -10z"/>
<path d="M1360 421 c0 -10 30 -24 37 -17 3 2 -5 9 -16 16 -12 6 -21 7 -21 1z"/>
<path d="M5480 421 c0 -5 5 -13 10 -16 6 -3 10 -2 10 4 0 5 -4 13 -10 16 -5 3
-10 2 -10 -4z"/>
<path d="M1796 405 c25 -19 40 -19 24 0 -7 8 -20 15 -28 15 -13 0 -12 -3 4
-15z"/>
<path d="M2580 416 c0 -2 7 -7 16 -10 8 -3 12 -2 9 4 -6 10 -25 14 -25 6z"/>
<path d="M4360 410 c8 -5 20 -10 25 -10 6 0 3 5 -5 10 -8 5 -19 10 -25 10 -5
0 -3 -5 5 -10z"/>
<path d="M5110 399 c0 -5 5 -7 10 -4 6 3 10 8 10 11 0 2 -4 4 -10 4 -5 0 -10
-5 -10 -11z"/>
<path d="M3258 393 c7 -3 16 -2 19 1 4 3 -2 6 -13 5 -11 0 -14 -3 -6 -6z"/>
<path d="M4940 376 c0 -2 9 -6 20 -9 11 -3 18 -1 14 4 -5 9 -34 13 -34 5z"/>
<path d="M3275 360 c3 -5 8 -10 11 -10 2 0 4 5 4 10 0 6 -5 10 -11 10 -5 0 -7
-4 -4 -10z"/>
<path d="M4277 359 c7 -7 15 -10 18 -7 3 3 -2 9 -12 12 -14 6 -15 5 -6 -5z"/>
<path d="M1230 351 c0 -6 4 -13 10 -16 6 -3 7 1 4 9 -7 18 -14 21 -14 7z"/>
<path d="M2755 350 c3 -5 11 -10 16 -10 6 0 7 5 4 10 -3 6 -11 10 -16 10 -6 0
-7 -4 -4 -10z"/>
<path d="M3997 349 c7 -7 15 -10 18 -7 3 3 -2 9 -12 12 -14 6 -15 5 -6 -5z"/>
<path d="M1290 340 c0 -5 5 -10 11 -10 5 0 7 5 4 10 -3 6 -8 10 -11 10 -2 0
-4 -4 -4 -10z"/>
<path d="M3460 315 c7 -8 17 -15 22 -15 6 0 5 7 -2 15 -7 8 -17 15 -22 15 -6
0 -5 -7 2 -15z"/>
<path d="M3650 321 c0 -5 7 -12 16 -15 14 -5 15 -4 4 9 -14 17 -20 19 -20 6z"/>
<path d="M4295 320 c3 -5 8 -10 11 -10 2 0 4 5 4 10 0 6 -5 10 -11 10 -5 0 -7
-4 -4 -10z"/>
<path d="M2250 310 c-13 -8 -12 -10 3 -10 9 0 17 5 17 10 0 12 -1 12 -20 0z"/>
<path d="M2630 310 c0 -5 5 -10 11 -10 5 0 7 5 4 10 -3 6 -8 10 -11 10 -2 0
-4 -4 -4 -10z"/>
<path d="M2695 310 c3 -5 11 -10 16 -10 6 0 7 5 4 10 -3 6 -11 10 -16 10 -6 0
-7 -4 -4 -10z"/>
<path d="M3151 317 c2 -1 13 -9 24 -17 19 -14 19 -14 6 3 -7 9 -18 17 -24 17
-6 0 -8 -1 -6 -3z"/>
<path d="M3948 313 c7 -3 16 -2 19 1 4 3 -2 6 -13 5 -11 0 -14 -3 -6 -6z"/>
<path d="M4501 304 c0 -11 3 -14 6 -6 3 7 2 16 -1 19 -3 4 -6 -2 -5 -13z"/>
<path d="M4615 300 c3 -5 8 -10 11 -10 2 0 4 5 4 10 0 6 -5 10 -11 10 -5 0 -7
-4 -4 -10z"/>
<path d="M4925 300 c-3 -5 -1 -10 4 -10 6 0 11 5 11 10 0 6 -2 10 -4 10 -3 0
-8 -4 -11 -10z"/>
<path d="M3578 293 c7 -3 16 -2 19 1 4 3 -2 6 -13 5 -11 0 -14 -3 -6 -6z"/>
<path d="M4108 293 c6 -2 18 -2 25 0 6 3 1 5 -13 5 -14 0 -19 -2 -12 -5z"/>
<path d="M5638 293 c7 -3 16 -2 19 1 4 3 -2 6 -13 5 -11 0 -14 -3 -6 -6z"/>
<path d="M90 3341 c0 -6 4 -13 10 -16 6 -3 7 1 4 9 -7 18 -14 21 -14 7z"/>
<path d="M125 3310 c3 -5 8 -10 11 -10 2 0 4 5 4 10 0 6 -5 10 -11 10 -5 0 -7
-4 -4 -10z"/>
<path d="M5918 3213 c7 -3 16 -2 19 1 4 3 -2 6 -13 5 -11 0 -14 -3 -6 -6z"/>
<path d="M5860 3061 c0 -5 7 -12 16 -15 14 -5 15 -4 4 9 -14 17 -20 19 -20 6z"/>
<path d="M5978 3053 c7 -3 16 -2 19 1 4 3 -2 6 -13 5 -11 0 -14 -3 -6 -6z"/>
<path d="M70 2906 c0 -2 8 -10 18 -17 15 -13 16 -12 3 4 -13 16 -21 21 -21 13z"/>
<path d="M5948 2853 c7 -3 16 -2 19 1 4 3 -2 6 -13 5 -11 0 -14 -3 -6 -6z"/>
<path d="M50 2636 c0 -2 7 -7 16 -10 8 -3 12 -2 9 4 -6 10 -25 14 -25 6z"/>
<path d="M5948 2293 c7 -3 16 -2 19 1 4 3 -2 6 -13 5 -11 0 -14 -3 -6 -6z"/>
<path d="M118 2163 c7 -3 16 -2 19 1 4 3 -2 6 -13 5 -11 0 -14 -3 -6 -6z"/>
<path d="M140 1575 c0 -7 30 -13 34 -7 3 4 -4 9 -15 9 -10 1 -19 0 -19 -2z"/>
<path d="M110 1510 c8 -5 20 -10 25 -10 6 0 3 5 -5 10 -8 5 -19 10 -25 10 -5
0 -3 -5 5 -10z"/>
<path d="M5802 1400 c0 -14 2 -19 5 -12 2 6 2 18 0 25 -3 6 -5 1 -5 -13z"/>
<path d="M5923 1183 c9 -2 23 -2 30 0 6 3 -1 5 -18 5 -16 0 -22 -2 -12 -5z"/>
<path d="M100 1103 c0 -5 9 -18 20 -28 11 -10 20 -16 20 -13 0 3 -9 15 -20 28
-11 13 -20 19 -20 13z"/>
<path d="M5868 993 c7 -3 16 -2 19 1 4 3 -2 6 -13 5 -11 0 -14 -3 -6 -6z"/>
<path d="M70 896 c0 -2 8 -10 18 -17 15 -13 16 -12 3 4 -13 16 -21 21 -21 13z"/>
<path d="M130 896 c0 -2 7 -9 15 -16 9 -7 15 -8 15 -2 0 5 -7 12 -15 16 -8 3
-15 4 -15 2z"/>
<path d="M8 743 c7 -3 16 -2 19 1 4 3 -2 6 -13 5 -11 0 -14 -3 -6 -6z"/>
<path d="M5802 695 c0 -16 2 -22 5 -12 2 9 2 23 0 30 -3 6 -5 -1 -5 -18z"/>
<path d="M5801 504 c0 -11 3 -14 6 -6 3 7 2 16 -1 19 -3 4 -6 -2 -5 -13z"/>
<path d="M5801 454 c0 -11 3 -14 6 -6 3 7 2 16 -1 19 -3 4 -6 -2 -5 -13z"/>
<path d="M5796 217 c3 -10 9 -15 12 -12 3 3 0 11 -7 18 -10 9 -11 8 -5 -6z"/>
<path d="M4922 174 c10 -10 20 -16 22 -13 3 3 -5 11 -17 18 -21 13 -21 12 -5
-5z"/>
<path d="M1948 173 c7 -3 16 -2 19 1 4 3 -2 6 -13 5 -11 0 -14 -3 -6 -6z"/>
<path d="M2711 163 c7 -12 15 -20 18 -17 3 2 -3 12 -13 22 -17 16 -18 16 -5
-5z"/>
<path d="M4980 156 c0 -2 7 -7 16 -10 8 -3 12 -2 9 4 -6 10 -25 14 -25 6z"/>
<path d="M1490 140 c8 -5 20 -10 25 -10 6 0 3 5 -5 10 -8 5 -19 10 -25 10 -5
0 -3 -5 5 -10z"/>
<path d="M5091 134 c0 -11 3 -14 6 -6 3 7 2 16 -1 19 -3 4 -6 -2 -5 -13z"/>
<path d="M3237 129 c7 -7 15 -10 18 -7 3 3 -2 9 -12 12 -14 6 -15 5 -6 -5z"/>
<path d="M4010 81 c0 -11 4 -22 9 -25 4 -3 6 6 3 19 -5 30 -12 33 -12 6z"/>
<path d="M2475 80 c-3 -5 -1 -10 4 -10 6 0 11 5 11 10 0 6 -2 10 -4 10 -3 0
-8 -4 -11 -10z"/>
<path d="M2620 70 c0 -5 7 -10 16 -10 8 0 12 5 9 10 -3 6 -10 10 -16 10 -5 0
-9 -4 -9 -10z"/>
<path d="M2085 60 c3 -5 8 -10 11 -10 2 0 4 5 4 10 0 6 -5 10 -11 10 -5 0 -7
-4 -4 -10z"/>
<path d="M3435 40 c3 -5 8 -10 11 -10 2 0 4 5 4 10 0 6 -5 10 -11 10 -5 0 -7
-4 -4 -10z"/>
<path d="M925 10 c3 -5 8 -10 11 -10 2 0 4 5 4 10 0 6 -5 10 -11 10 -5 0 -7
-4 -4 -10z"/>
</g>
</svg>
